<?xml version="1.0" encoding="utf-8"?>
<!-- Generator: Adobe Illustrator 22.0.0, SVG Export Plug-In . SVG Version: 6.00 Build 0)  -->
<svg version="1.1" id="Camada_1" xmlns="http://www.w3.org/2000/svg" xmlns:xlink="http://www.w3.org/1999/xlink" x="0px" y="0px"
	 viewBox="0 0 400 400" style="enable-background:new 0 0 400 400;" xml:space="preserve">
<style type="text/css">
	.st0{fill:#941512;}
	.st1{fill:#DC4711;}
	.st2{fill:#CD1E07;}
	.st3{fill:#AF1A0E;}
	.st4{fill:#873111;}
	.st5{fill:#EDB92B;}
	.st6{fill:#E59824;}
	.st7{fill:#A64013;}
	.st8{fill:#DB5A15;}
	.st9{fill:#A41C32;}
	.st10{fill:#870019;}
	.st11{fill:#62101D;}
	.st12{fill:#A54818;}
	.st13{fill:#53091A;}
	.st14{fill:#E48B34;}
	.st15{fill:#E06C27;}
</style>
<g>
	<g>
		<g>
			<path class="st0" d="M62.1,172.6c0,0,18.8,3.2,23.1,2.7c4.3-0.5,1-3.5,1-3.5s-2,1.2-3.9,1.5c-1.9,0.3-19.9-2.9-19.9-2.9
				L62.1,172.6z"/>
			<path class="st1" d="M81,144.5l-2.1,11c0,0,5.2-0.5,7.7-0.8l-9.1,9.9c0,0,2.6,0.6,4.8,1.6L70.2,172l-2,1l0.3,0.2l12.1,9.5
				c-2.4,0.5-5,0.6-5,0.6l6.7,11.6c-2.4-0.8-7.4-2.4-7.4-2.4l-0.3,11.2c-4-0.8-10.6-6.9-10.6-6.9c-1.6,4.8-6.8,12.2-6.8,12.2
				c-2-2.9-2.7-9.6-2.7-9.6c-3.4,3.6-15.3,6.7-15.7,6.8l2.5-5.2c-4.2,2.1-18.5,2.5-18.5,2.5c1.6-4.2,7.6-11.6,7.6-11.6l-3.4-0.3
				c2.5-2.4,9.6-5.3,10.1-5.5c-10.1,3-19.4-1-19.4-1l5.9-3.4c-3.1,0.3-11.6-2.7-11.6-2.7l5.2-3.3c-2.8-0.4-7.7-6.4-9.7-8.9
				c-0.2-0.2-0.3-0.4-0.4-0.5c0.1-0.1,0.3-0.3,0.5-0.4c2.4-2,8.6-6.8,11.4-6.6l-4.3-4.3c0,0,9-1.1,11.9-0.1l-5-4.6
				c0,0,10-1.9,19.2,3.2c-0.4-0.3-6.7-4.7-8.7-7.5l3.4,0.5c0,0-4.2-8.5-4.9-12.9c0,0,13.8,3.4,17.5,6.4l-1.3-5.6
				c0.3,0.2,11.3,5.8,13.8,10c0,0,2.1-6.3,4.7-8.8c0,0,3.5,8.4,4,13.4C69.2,148.9,76.9,144.4,81,144.5z"/>
			<path class="st2" d="M69,172.6l13.3-6.4c-2.2-1-4.8-1.6-4.8-1.6l9.1-9.9c-2.5,0.2-7.7,0.8-7.7,0.8l2.1-11
				c-4.1-0.1-11.9,4.5-11.9,4.5c-0.5-5-4-13.4-4-13.4c-2.6,2.4-4.7,8.8-4.7,8.8c-2.5-4.2-13.5-9.8-13.8-10l1.3,5.6
				c-3.7-3-17.5-6.4-17.5-6.4c0.7,4.5,4.9,12.9,4.9,12.9l-3.4-0.5c1.9,2.8,8.3,7.2,8.7,7.5c-9.2-5.2-19.2-3.2-19.2-3.2l5,4.6
				c-2.9-1-11.9,0.1-11.9,0.1l4.3,4.3c-2.8-0.2-9,4.6-11.4,6.6c-0.2,0.2-0.4,0.3-0.5,0.4l8.4,0.4L69,172.6z"/>
			<path class="st3" d="M59.8,170.9l1.3,0.1c1.6-12.6-7.1-28.5-7.2-28.7c-0.1-0.1,0-0.3,0.1-0.3c0.1-0.1,0.3,0,0.3,0.1
				c0.1,0.2,8.7,15.9,7.3,28.6c0,0.1,0,0.2,0,0.3l1.6,0.2c3.1-15,1.6-28.8,1.6-28.9c0-0.1,0.1-0.2,0.2-0.3c0.1,0,0.2,0.1,0.3,0.2
				c0,0.1,1,9.1-0.2,20.5c-0.3,2.8-0.7,5.6-1.3,8.6l1.4,0.2c0.8-1.8,1.7-3.7,2.4-5.4c3-6.7,5.7-13.1,9.8-17.4c0.1-0.1,0.2-0.1,0.3,0
				c0.1,0.1,0.1,0.1,0.1,0.2c0,0.1,0,0.1-0.1,0.1c-4,4.2-6.7,10.5-9.7,17.2c-0.8,1.7-1.6,3.5-2.4,5.3c1.5,0.2,3.1,0.3,4.6,0.5l-2,1
				l0.3,0.2c-1-0.1-2-0.2-3-0.3c0.4,1.9,0.8,3.8,1.2,5.7c1.4,7.2,2.7,14,5.7,18.9c0,0,0,0.1,0,0.2c0,0.1,0,0.1-0.1,0.2
				c-0.1,0.1-0.3,0-0.3-0.1c-3-5-4.4-11.9-5.8-19.1c-0.4-1.9-0.8-3.9-1.2-5.8l-1.4-0.2c0,3-0.2,5.9-0.5,8.7
				c-1.2,11.4-4.2,19.9-4.2,20c0,0.1-0.2,0.2-0.3,0.1c-0.1,0-0.2-0.2-0.1-0.3c0-0.1,4.6-13.2,4.7-28.6l-1.6-0.2c0,0.1,0,0.2,0,0.3
				C60,185.4,48.2,199,48.1,199.1c-0.1,0.1-0.2,0.1-0.3,0c-0.1-0.1-0.1-0.2,0-0.3c0.1-0.1,12-13.8,13.2-26.4l-1.3-0.1
				c-9,17.2-28.1,26.5-28.3,26.6c-0.1,0.1-0.3,0-0.3-0.1c-0.1-0.1,0-0.3,0.1-0.3c0.2-0.1,19-9.3,28-26.2c-3.1-0.3-6-0.7-8.9-1
				c-9.2,13.4-22.8,12.7-23,12.7c-0.1,0-0.2-0.1-0.2-0.3c0-0.2,0.1-0.2,0.3-0.2c0.1,0,13.4,0.6,22.4-12.3c-4.8-0.6-9.3-1.1-13.2-1.6
				c-7.5,7.8-17.4,9-17.4,9c-0.1,0-0.3-0.1-0.3-0.2c0-0.1,0.1-0.3,0.2-0.3c0.1,0,9.5-1.1,16.9-8.6c-12.7-1.5-20.6-2.6-20.6-2.8
				c0-0.2,8,0.5,20.7,1.8c-5.6-8.9-14.6-12-14.6-12c-0.1,0-0.2-0.2-0.2-0.3c0-0.1,0.2-0.2,0.3-0.1c0.1,0,9.4,3.3,15.1,12.5
				c4,0.4,8.5,0.9,13.3,1.4c-3.1-7.4-7.9-11.6-11.6-13.8c-4.1-2.5-7.6-3.1-7.7-3.1c-0.1,0-0.2-0.1-0.2-0.3c0-0.1,0.1-0.2,0.3-0.2
				c0.1,0,13.6,2.3,19.7,17.4c2.8,0.3,5.8,0.6,8.9,0.9c-5.1-18.5-21.5-31.5-21.7-31.7c-0.1-0.1-0.1-0.2,0-0.3c0.1-0.1,0.2-0.1,0.3,0
				C38.1,139,54.7,152.2,59.8,170.9z"/>
		</g>
	</g>
	<g>
		<g>
			<path class="st4" d="M292.8,211.7c0,0,4.5,5.8,5.8,6.8c1.3,1,1.2-0.7,1.2-0.7s-0.9-0.2-1.5-0.6c-0.6-0.4-4.9-6-4.9-6L292.8,211.7
				z"/>
			<path class="st5" d="M297.3,196l2.5-3.6c0.7,4.6-3,10.7-3,10.7c2-0.3,7.9-3.1,7.9-3.1c-1.5,4.7-7.7,9.1-7.7,9.1l3.4-0.6
				c-1.8,1.5-4.9,2.7-6.7,3.3c-0.1,0-0.2,0.1-0.2,0.1c0,0.1-0.1,0.2-0.1,0.2c-0.8,1.7-2.4,4.7-4.1,6.2l1-3.3c0,0-5.2,5.5-10.1,6.5
				c0,0,3.6-5.5,4.2-7.4c0,0-6.5,2.8-11,1.6l3.9-2c-0.2,0-6.7,0.1-9.8-2.8c0,0,6.9-2.9,11.2-1.6c0,0-2.9-1.4-3.4-2.3
				c0,0,4.7-0.3,7.9,0.4c-2.9-1.1-8.3-3.3-10.4-5.3l4.7-0.8c0,0-5.7-3.7-7.3-5.9l2.8,0.2c0,0-5.1-6.9-4-11.8l0,0c0,0,0,0,0,0
				c0,0,0,0,0,0l0,0c5-0.5,11.2,5.5,11.2,5.5l0.2-2.8c2,1.9,4.9,8,4.9,8l1.4-4.5c1.7,2.4,3.2,8,3.9,11c-0.3-3.3,0.6-7.9,0.6-7.9
				c0.9,0.7,1.8,3.7,1.8,3.7c-0.7-4.3,3-10.9,3-10.9C298.3,189.4,297.4,195.8,297.3,196z"/>
			<path class="st6" d="M297.3,196l2.5-3.6c0.7,4.6-3,10.7-3,10.7c2-0.3,7.9-3.1,7.9-3.1c-1.5,4.7-7.7,9.1-7.7,9.1l3.4-0.6
				c-1.8,1.6-5.2,2.8-6.9,3.4l-24.6-28c5-0.5,11.2,5.5,11.2,5.5l0.2-2.8c2,1.9,4.9,8,4.9,8l1.4-4.5c1.7,2.4,3.2,8,3.9,11
				c-0.3-3.3,0.6-7.9,0.6-7.9c0.9,0.7,1.8,3.7,1.8,3.7c-0.7-4.3,3-10.9,3-10.9C298.3,189.4,297.4,195.8,297.3,196z"/>
			<path class="st7" d="M294.4,202.4L294.4,202.4c-0.4,1.6-0.9,3.4-1.4,5c2.6-0.6,7.8-3.8,7.9-3.8l0.1,0.1c-0.2,0.1-5.5,3.3-8,3.9
				c-0.2,0.6-0.4,1.1-0.7,1.7c2.6,1.2,5.2,0.4,5.2,0.4l0.1,0.2c0,0-2.6,0.8-5.3-0.4c-0.1,0.1-0.1,0.2-0.2,0.4
				c0.6,0.6,1.1,1.3,1.7,1.9c-0.1,0-0.2,0.1-0.2,0.1c0,0.1-0.1,0.2-0.1,0.2c-0.6-0.6-1.1-1.3-1.7-1.9c-0.1,0-0.3,0.1-0.4,0.1
				c0.8,2.8-0.3,5.3-0.3,5.3l-0.2-0.1c0,0,1.1-2.4,0.3-5.2c-0.6,0.2-1.2,0.3-1.8,0.4c-0.9,2.5-4.7,7.2-4.9,7.4l-0.1-0.1
				c0,0,3.9-4.8,4.8-7.3c-1.7,0.4-3.5,0.6-5.2,0.7l0.1,0.1l-0.2,0.2c-2.6,2.3-5.7,3.2-5.7,3.2l0-0.2c0,0,3.1-0.9,5.7-3.2
				c-6.1,0.4-11.5-0.4-11.5-0.4l0-0.2c0.1,0,6.6,0.9,13.3,0.2c-1.9-1-6.8-3.2-6.9-3.2l0.1-0.2c0.1,0,5.4,2.4,7.1,3.3
				c1.4-0.2,2.9-0.4,4.3-0.7c-1.2-0.8-4.9-2.5-5-2.5l0.1-0.2c0.2,0.1,4,1.8,5.1,2.6c0.4-0.1,0.8-0.2,1.3-0.4c-1.5-1.8-3-3.5-4.4-5.1
				c-3.6,0.3-11.1-2.1-11.2-2.1l0.1-0.2c0.1,0,7.3,2.3,11,2.1c-1.4-1.7-2.8-3.2-4.1-4.7c-5.8-0.3-10.7-3.5-10.7-3.5l0.1-0.1
				c0,0,4.8,3.2,10.4,3.5c-1.8-2-3.4-3.9-4.8-5.5l-0.1,0c0,0,0-0.1,0-0.1l0,0c-3.6-0.7-6.3-2.9-6.3-2.9l0.1-0.1c0,0,2.5,2.1,6,2.9
				c-3.8-4.4-6.1-7.1-6-7.1c0,0,2.4,2.5,6.2,6.8c-0.3-3.5-2-6.2-2-6.2l0.1-0.1c0,0,1.9,2.9,2.1,6.5c0,0,0.1,0.1,0.1,0.1c0,0,0,0,0,0
				l0,0c1.4,1.6,3,3.4,4.8,5.4c0.4-5.6-2.1-10.7-2.1-10.7l0.2-0.1c0,0.1,2.5,5.2,2.1,11c1.3,1.5,2.7,3,4.1,4.7
				c0.6-3.6-0.6-11-0.7-11.1l0.2,0c0,0.1,1.3,7.7,0.6,11.3c1.4,1.6,2.9,3.3,4.5,5.1c0.2-0.4,0.3-0.8,0.5-1.1
				c-0.7-1.2-1.9-5.2-1.9-5.4l0.2,0c0,0,1.2,3.9,1.8,5.2c0.5-1.3,0.9-2.7,1.3-4.1c-0.7-1.8-2.3-7.4-2.3-7.5l0.2,0
				c0,0.1,1.5,5.3,2.3,7.2c1.6-6.6,1.5-13.1,1.5-13.2l0.2,0c0,0.1,0.1,5.5-1.1,11.5c2.7-2.3,3.9-5.2,4-5.2l0.2,0.1
				c0,0-1.3,2.9-3.9,5.2L294.4,202.4z"/>
		</g>
	</g>
	<g>
		<g>
			<g>
				<path class="st5" d="M241.3,67.4c1.9,1.9,3,7.1,3,7.1l0.8-1.5c1.3,1.7,1.6,8,1.6,8l1.2-1.9c1,1.2,0.1,9.3,0.1,9.3l1.3-1.9
					c1.1,2.3,0.9,6.6,0.5,10.9c-0.5,4.1-1.3,8-1.7,10c0,0.1,0,0.2-0.1,0.2c0,0,0,0,0,0c-0.3,0.1-0.6,0.1-1,0.2
					c-4.6,1-15.9,3-20.2,1.1l1.9-1.3c0,0-8.1,0.9-9.3-0.1l1.9-1.2c0,0-6.3-0.3-8-1.5l1.5-0.8c0,0-5.3-1.1-7.1-3l1.2-0.6
					c0,0-4.8-1.8-6.8-4.8l1.3,0c0,0-4.9-3.4-5.1-5.4l1.1,0.3c0,0-3.9-3.7-4.2-5.5l1.2,0.3c0,0-2.7-3.1-2.9-5.1l1.2,0.5
					c0,0-2.1-3.6-2.4-5.2l1.1,0.5c0,0-2.1-4.2-2.2-6.5l1.2,0.9c0,0-1.4-3.6-1.4-5.2l0.7,0.4c0,0-0.8-3.5-0.6-4.3l0.9,0.9
					c0,0-1.3-3.8-0.9-4.9l0.7,0.8c0,0-0.2-1-0.3-2.3c-0.1-1.3,0-3,0.5-4.2c0,0,0,0,0,0c2.6-1,6.5-0.2,6.5-0.2l-0.8-0.7
					c1-0.4,4.9,0.9,4.9,0.9l-0.9-0.9c0.8-0.3,4.3,0.6,4.3,0.6l-0.4-0.7c1.5,0,5.2,1.4,5.2,1.4l-0.9-1.2c2.2,0.1,6.5,2.2,6.5,2.2
					l-0.5-1.1c1.5,0.3,5.2,2.4,5.2,2.4l-0.5-1.2c2,0.2,5.1,2.9,5.1,2.9l-0.3-1.2c1.8,0.3,5.5,4.2,5.5,4.2l-0.3-1.1
					c2,0.2,5.4,5.1,5.4,5.1l0-1.3c3.1,2,4.8,6.8,4.8,6.8L241.3,67.4z"/>
				<path class="st6" d="M240.7,68.6c0,0-1.8-4.8-4.8-6.8l0,1.3c0,0-3.4-4.9-5.4-5.1l0.3,1.1c0,0-3.7-3.9-5.5-4.2l0.3,1.2
					c0,0-3.1-2.7-5.1-2.9l0.5,1.2c0,0-3.6-2.1-5.2-2.4l0.5,1.1c0,0-4.2-2.1-6.5-2.2l0.9,1.2c0,0-3.6-1.4-5.2-1.4l0.4,0.7
					c0,0-3.5-0.8-4.3-0.6l0.9,0.9c0,0-3.8-1.3-4.9-0.9l0.8,0.7c0,0-4-0.8-6.5,0.2l0,0c0,0,0,0,0,0c0,0,0,0,0,0l0,0
					c0,0.1-0.1,0.2-0.1,0.2l55.6,55.6c0.1,0,0.2,0,0.3-0.1l0,0c0,0,0,0,0,0c0,0,0,0,0,0l0,0c0.8-3.7,3.4-16.6,1.3-21.1l-1.3,1.9
					c0,0,0.9-8.1-0.1-9.3l-1.2,1.9c0,0-0.3-6.3-1.5-8l-0.8,1.5c0,0-1.1-5.3-3-7.1L240.7,68.6z"/>
				<path class="st8" d="M234.8,64.4c-0.2,0.9-4.6,20.3-5.9,24.1c1.2,1.2,2.4,2.3,3.6,3.5c1.4-4.5,6.5-21.7,6.6-21.8
					c0-0.1,0.2-0.2,0.3-0.1c0.1,0,0.2,0.2,0.1,0.3c-0.1,0.2-5.3,17.9-6.7,22.1c1.2,1.2,2.4,2.4,3.7,3.6c1.1-2.9,5.9-19.5,6-19.7
					c0-0.1,0.2-0.2,0.3-0.1c0.1,0,0.2,0.1,0.1,0.3c-0.2,0.7-5.1,17.5-6.1,19.9c1.1,1.1,2.2,2.2,3.4,3.3c1.3-3.2,5-17.1,5.1-17.3
					c0-0.1,0.1-0.2,0.3-0.2c0.1,0,0.2,0.1,0.1,0.3c-0.2,0.6-3.9,14.6-5.2,17.5c1.1,1.1,2.2,2.2,3.4,3.4c1.3-4.2,3.1-12.6,3.1-12.7
					c0-0.1,0.1-0.2,0.3-0.2c0.1,0,0.2,0.1,0.2,0.2c0,0.1-1.9,8.8-3.2,13c1.2,1.2,2.5,2.5,3.8,3.7c0,0.1,0,0.2-0.1,0.2c0,0,0,0,0,0
					c-0.3,0.1-0.6,0.1-1,0.2c-1.1-1.2-2.3-2.3-3.4-3.4c-4.1,1.3-13,3.2-13,3.2c-0.1,0-0.2,0-0.2-0.2c0-0.1,0-0.2,0.2-0.3
					c0.1,0,8.6-1.8,12.8-3.2c-1.1-1.1-2.3-2.3-3.4-3.4c-2.8,1.3-16.9,5-17.6,5.2c-0.1,0-0.2,0-0.3-0.1c0-0.1,0-0.2,0.1-0.3
					c0.2,0,14.3-3.8,17.4-5.1c-1.1-1.1-2.2-2.3-3.3-3.4c-2.1,0.8-19.2,5.9-20,6.1c-0.1,0-0.2,0-0.3-0.1c0-0.1,0-0.2,0.1-0.3
					c0.2-0.1,17.1-5,19.8-6c-1.2-1.2-2.4-2.5-3.6-3.7c-4,1.3-22,6.6-22.1,6.7c-0.1,0-0.2,0-0.3-0.1c0-0.1,0-0.2,0.1-0.3
					c0.2-0.1,17.5-5.2,21.9-6.6c-1.2-1.2-2.4-2.4-3.5-3.6c-3.6,1.3-23.3,5.7-24.2,5.9c-0.1,0-0.2,0-0.3-0.2c0-0.1,0.1-0.2,0.2-0.3
					c0.2,0,20-4.5,24-5.9c-1.3-1.3-2.6-2.6-3.8-3.9c-2.6,1.1-22.7,4.8-23.5,5c-0.1,0-0.2-0.1-0.2-0.2c0-0.1,0.1-0.2,0.2-0.2
					c0.2,0,20.1-3.7,23.3-4.9c-1.5-1.5-3-3-4.4-4.5c-1.9,0.4-21.8,5.2-22,5.2l-0.1-0.4c0.2,0,18.8-4.5,21.8-5.1
					c-1.2-1.2-2.4-2.4-3.5-3.6c-2.4,0.9-19,4-19.7,4.1c-0.1,0-0.2-0.1-0.2-0.2c0-0.1,0.1-0.2,0.2-0.2c0.2,0,16.5-3.1,19.5-4
					c-1.2-1.2-2.4-2.4-3.5-3.6c-2.5,0.6-16.9,2.6-17.5,2.7c-0.1,0-0.2-0.1-0.2-0.2c0-0.1,0.1-0.2,0.2-0.2c0.1,0,14.1-1.9,17.2-2.6
					c-1.4-1.4-2.7-2.7-3.9-4c-2.1,0.3-13.6,0.6-14.1,0.6c-0.1,0-0.2-0.1-0.2-0.2c0-0.1,0.1-0.2,0.2-0.2c0.1,0,11.1-0.2,13.8-0.6
					c-1.4-1.5-2.8-2.8-4-4.1c0,0,0,0,0,0c-0.1,0-0.1-0.1-0.2-0.1c-2,0.1-9.5,0.1-9.8,0.1c-0.1,0-0.2-0.1-0.2-0.2
					c0-0.1,0.1-0.2,0.2-0.2c0.1,0,7.1,0,9.5-0.1c-1.7-1.7-3.1-3.2-4.3-4.4c0,0,0,0-0.1,0c0,0-0.1,0-0.1,0c-1.2,0.1-4.9,0.2-5.1,0.2
					c-0.1,0-0.2-0.1-0.2-0.2c0-0.1,0.1-0.2,0.2-0.2c0,0,3.5-0.1,4.8-0.2c-2.6-2.7-4-4.2-4-4.3c0,0,1.5,1.4,4.2,3.9
					c0.1-1.4,0.2-4.7,0.2-4.7c0-0.1,0.1-0.2,0.2-0.2c0.1,0,0.2,0.1,0.2,0.2c0,0.2-0.1,3.9-0.2,5.1l0,0c1.2,1.2,2.7,2.7,4.4,4.3
					c0.1-2.4,0.1-9.3,0.1-9.4c0-0.1,0.1-0.2,0.2-0.2c0.1,0,0.2,0.1,0.2,0.2c0,0.3,0,7.7-0.1,9.8c1.3,1.3,2.7,2.6,4.2,4.1
					c0.3-2.8,0.5-13.6,0.5-13.7c0-0.1,0.1-0.2,0.2-0.2c0.1,0,0.2,0.1,0.2,0.2c0,0.5-0.2,11.7-0.6,14c1.3,1.2,2.6,2.6,4,3.9
					c0.7-3.2,2.6-17,2.6-17.1c0-0.1,0.1-0.2,0.2-0.2c0.1,0,0.2,0.1,0.2,0.2c-0.1,0.6-2,14.6-2.6,17.4c1.1,1.1,2.3,2.3,3.6,3.5
					c1-3.1,4-19.2,4-19.4c0-0.1,0.1-0.2,0.2-0.2c0.1,0,0.2,0.1,0.2,0.2c-0.1,0.7-3.2,17-4.1,19.6c1.1,1.1,2.3,2.3,3.5,3.5
					c0.8-3.2,5.1-21.5,5.1-21.7c0-0.1,0.1-0.2,0.3-0.2c0.1,0,0.2,0.1,0.2,0.3c0,0.2-4.7,19.7-5.2,21.9c1.5,1.4,3,2.9,4.5,4.5
					c1.2-3.4,4.8-23,4.8-23.2c0-0.1,0.1-0.2,0.2-0.2c0.1,0,0.2,0.1,0.2,0.2c-0.2,0.9-3.8,20.5-4.9,23.5c1.3,1.2,2.5,2.5,3.9,3.8
					c1.4-4.2,5.8-23.7,5.8-23.9c0-0.1,0.1-0.2,0.2-0.2C234.8,64.1,234.8,64.3,234.8,64.4z"/>
			</g>
		</g>
	</g>
	<g>
		<g>
			<g>
				<path class="st9" d="M353.4,5.7c2.6,0.8,6.1,5,6.1,5l0-1.8c2,0.9,5.2,6.5,5.2,6.5l0.2-2.2c1.5,0.7,4.5,8.4,4.5,8.4l0.3-2.3
					c2,1.6,4,5.6,5.6,9.7c1.5,3.9,2.7,7.9,3.2,9.9c0,0.1,0,0.2,0.1,0.2c0,0,0,0,0,0c-0.2,0.2-0.5,0.4-0.8,0.7
					c-3.7,3.1-13,10.3-17.8,10.6l1.1-2.1c0,0-6.9,4.7-8.5,4.4l1.1-1.9c0,0-5.9,2.8-8,2.4l1-1.5c0,0-5.3,1.5-7.9,0.7l0.9-1.1
					c0,0-5.2,0.7-8.5-1.1l1.2-0.6c0,0-6.1-0.7-7.2-2.4l1.2-0.3c0,0-5.3-1.5-6.4-3l1.2-0.2c0,0-3.9-1.5-5-3.2l1.3-0.1
					c0,0-3.7-2.3-4.6-3.5l1.2,0c0,0-3.9-2.8-5.1-4.8l1.5,0.2c0,0-3-2.6-3.7-4l0.9,0.1c0,0-2.4-2.8-2.6-3.7l1.3,0.3c0,0-3-2.9-3.1-4
					l1,0.4c0,0-0.7-0.8-1.3-2c-0.7-1.2-1.4-2.7-1.6-4.1c0,0,0,0,0,0c1.9-2.1,5.8-3.3,5.8-3.3l-1.1-0.3C307,10.7,311,10,311,10
					l-1.2-0.4C310.4,9,314,8,314,8l-0.7-0.4c1.4-0.8,5.3-1.2,5.3-1.2l-1.4-0.7c2.1-1,6.9-1.1,6.9-1.1l-1-0.7
					c1.5-0.5,5.8-0.3,5.8-0.3l-1-0.8c1.9-0.8,6,0.2,6,0.2l-0.9-0.9c1.8-0.6,7,1.2,7,1.2l-0.8-0.9c1.9-0.8,7.3,2.1,7.3,2.1l-0.7-1.2
					c3.7,0.4,7.6,3.9,7.6,3.9L353.4,5.7z"/>
				<path class="st10" d="M353.5,7.1c0,0-3.9-3.5-7.6-3.9l0.7,1.2c0,0-5.4-2.8-7.3-2.1l0.8,0.9c0,0-5.2-1.8-7-1.2l0.9,0.9
					c0,0-4.1-1-6-0.2l1,0.8c0,0-4.3-0.2-5.8,0.3l1,0.7c0,0-4.8,0.1-6.9,1.1l1.4,0.7c0,0-3.9,0.4-5.3,1.2L314,8c0,0-3.6,0.9-4.2,1.6
					L311,10c0,0-4.1,0.7-4.8,1.5l1.1,0.3c0,0-4,1.2-5.8,3.3l0,0c0,0,0,0,0,0c0,0,0,0,0,0l0,0c0,0.1,0,0.2,0,0.3l76.9,23.9
					c0.1-0.1,0.1-0.1,0.2-0.2l0,0c0,0,0,0,0,0c0,0,0,0,0,0l0,0c-1-3.7-4.8-16.6-8.9-19.8l-0.3,2.3c0,0-3-7.7-4.5-8.4l-0.2,2.2
					c0,0-3.3-5.6-5.2-6.5l0,1.8c0,0-3.5-4.2-6.1-5L353.5,7.1z"/>
				<path class="st11" d="M346.1,6.1c0.2,0.9,5.6,20.6,6.1,24.7c1.6,0.5,3.3,1,4.9,1.5c-0.9-4.8-4.4-22.7-4.4-22.9
					c0-0.1,0.1-0.2,0.2-0.3c0.1,0,0.2,0.1,0.2,0.2c0,0.2,3.7,18.8,4.5,23.2c1.7,0.5,3.3,1,5.1,1.6c-0.4-3.2-3.9-20.5-4-20.7
					c0-0.1,0.1-0.2,0.2-0.3c0.1,0,0.2,0,0.3,0.2c0.2,0.8,3.7,18.3,4,20.9c1.5,0.5,3.1,1,4.6,1.4c-0.3-3.5-3.6-17.9-3.6-18.1
					c0-0.1,0-0.2,0.2-0.3c0.1,0,0.2,0,0.3,0.2c0.1,0.6,3.4,15.1,3.6,18.3c1.5,0.5,3.1,1,4.7,1.4c-0.8-4.4-3.2-12.9-3.2-13
					c0-0.1,0-0.2,0.1-0.3c0.1,0,0.2,0,0.3,0.1c0,0.1,2.5,8.9,3.3,13.3c1.7,0.5,3.4,1.1,5.2,1.6c0,0.1,0,0.2,0.1,0.2c0,0,0,0,0,0
					c-0.2,0.2-0.5,0.4-0.8,0.7c-1.6-0.5-3.2-1-4.7-1.5c-3.1,3.2-10.2,9.1-10.3,9.1c-0.1,0.1-0.2,0.1-0.3,0c-0.1-0.1-0.1-0.2,0-0.3
					c0.1-0.1,6.9-5.8,10.1-9c-1.6-0.5-3.1-1-4.7-1.5c-1.9,2.5-12.9,12.6-13.4,13.1c-0.1,0.1-0.2,0.1-0.3,0c-0.1-0.1-0.1-0.2,0-0.3
					c0.1-0.1,11.2-10.3,13.3-12.9c-1.6-0.5-3.1-1-4.6-1.5c-1.5,1.8-14.6,14.5-15.2,15c-0.1,0.1-0.2,0.1-0.3,0s-0.1-0.2,0-0.3
					c0.1-0.1,13.1-12.7,15.1-14.9c-1.7-0.5-3.4-1.1-5-1.6c-3,3.1-16.7,16.5-16.9,16.6c-0.1,0.1-0.2,0.1-0.3,0
					c-0.1-0.1-0.1-0.2,0-0.3c0.1-0.1,13.4-13.1,16.7-16.5c-1.7-0.5-3.3-1-4.9-1.5c-2.6,2.9-18.4,16.3-19.1,16.9
					c-0.1,0.1-0.2,0.1-0.3,0c-0.1-0.1-0.1-0.2,0-0.3c0.2-0.1,16-13.6,18.9-16.7c-1.8-0.6-3.6-1.1-5.3-1.7
					c-1.9,2.3-18.3,15.1-19,15.7c-0.1,0.1-0.2,0.1-0.3,0c-0.1-0.1-0.1-0.2,0-0.3c0.2-0.1,16.5-12.9,18.8-15.5
					c-2.1-0.7-4.2-1.3-6.2-1.9c-1.5,1.3-17.3,15.1-17.5,15.2l-0.3-0.3c0.2-0.1,14.9-13,17.3-15c-1.7-0.5-3.3-1-4.9-1.5
					c-1.8,1.9-15.3,12.6-15.9,13.1c-0.1,0.1-0.2,0.1-0.3,0c-0.1-0.1-0.1-0.2,0-0.3c0.1-0.1,13.5-10.7,15.7-12.9
					c-1.7-0.5-3.3-1.1-4.9-1.6c-2,1.8-14.1,10.4-14.6,10.8c-0.1,0.1-0.2,0-0.3-0.1c-0.1-0.1,0-0.2,0.1-0.3
					c0.1-0.1,11.9-8.5,14.3-10.6c-1.9-0.6-3.7-1.2-5.5-1.7c-1.7,1.3-12.1,7-12.5,7.3c-0.1,0.1-0.2,0-0.3-0.1c-0.1-0.1,0-0.2,0.1-0.3
					c0.1-0.1,10-5.5,12.2-7.1c-2-0.6-3.8-1.2-5.5-1.8c0,0,0,0,0,0c-0.1,0-0.1,0-0.2,0c-1.8,1.1-8.5,4.6-8.8,4.7
					c-0.1,0.1-0.2,0-0.3-0.1c-0.1-0.1,0-0.2,0.1-0.3c0.1,0,6.5-3.4,8.6-4.6c-2.3-0.7-4.3-1.4-6-1.9c0,0,0,0,0,0c0,0-0.1,0-0.1,0
					c-1,0.7-4.4,2.5-4.5,2.6c-0.1,0.1-0.2,0-0.3-0.1c-0.1-0.1,0-0.2,0.1-0.3c0,0,3.1-1.7,4.3-2.5c-3.7-1.2-5.7-1.9-5.6-2
					c0-0.1,2,0.5,5.7,1.6c-0.6-1.3-2.1-4.3-2.1-4.4c-0.1-0.1,0-0.2,0.1-0.3c0.1-0.1,0.2,0,0.3,0.1c0.1,0.2,1.8,3.6,2.2,4.7l0,0
					c1.7,0.5,3.7,1.1,6.1,1.8c-1.1-2.3-4.4-8.5-4.4-8.5c-0.1-0.1,0-0.2,0.1-0.3c0.1-0.1,0.2,0,0.3,0.1c0.2,0.3,3.7,7,4.6,8.9
					c1.8,0.5,3.7,1.1,5.8,1.7c-1-2.7-6-12.6-6-12.7c-0.1-0.1,0-0.2,0.1-0.3c0.1-0.1,0.2,0,0.3,0.1c0.2,0.5,5.4,10.8,6.2,13
					c1.7,0.5,3.6,1.1,5.5,1.7c-0.9-3.3-5.8-16.6-5.8-16.7c0-0.1,0-0.2,0.1-0.3c0.1,0,0.2,0,0.3,0.1c0.2,0.6,5.2,14.2,5.9,17
					c1.6,0.5,3.2,1,4.9,1.5c-0.6-3.3-5.6-19.3-5.6-19.5c0-0.1,0-0.2,0.1-0.3c0.1,0,0.2,0,0.3,0.1c0.2,0.7,5.2,16.9,5.7,19.7
					c1.6,0.5,3.2,1,4.9,1.5c-0.8-3.2-5.6-21.9-5.7-22.1c0-0.1,0-0.2,0.2-0.3c0.1,0,0.2,0,0.3,0.2c0.1,0.2,5.2,20.1,5.8,22.4
					c2,0.6,4.1,1.2,6.2,1.9c-0.5-3.6-6.6-23.1-6.7-23.3c0-0.1,0-0.2,0.1-0.3c0.1,0,0.2,0,0.3,0.1c0.3,0.8,6.4,20.4,6.7,23.6
					c1.7,0.5,3.5,1.1,5.3,1.6c-0.7-4.4-6-24.2-6.1-24.4c0-0.1,0-0.2,0.1-0.3C345.9,5.9,346.1,6,346.1,6.1z"/>
			</g>
		</g>
	</g>
	<g>
		<g>
			<g>
				<path class="st9" d="M74.4,171.7c2.5-1.4,8.3-0.9,8.3-0.9l-1.4-1.3c2.1-0.8,8.8,0.8,8.8,0.8l-1.6-1.8c1.6-0.6,9.6,2.7,9.6,2.7
					l-1.5-1.9c2.7-0.4,7.2,1,11.4,2.8c4.1,1.7,7.9,3.7,9.8,4.8c0.1,0.1,0.2,0.1,0.2,0.1c0,0,0,0,0,0c0,0.3-0.1,0.7-0.1,1.1
					c-0.4,5.1-1.7,17.4-5,21.2l-0.8-2.3c0,0-1.5,8.6-2.9,9.6l-0.7-2.3c0,0-2.2,6.5-4,7.8l-0.4-1.8c0,0-2.8,5.1-5.2,6.5l-0.2-1.4
					c0,0-3.3,4.4-7,5.6l0.4-1.4c0,0-5,4.1-7.1,3.6l0.7-1.1c0,0-5,2.9-7,2.7l0.7-1.1c0,0-4,1.8-6.1,1.5l0.9-1.1c0,0-4.4,1.1-6.1,0.9
					l0.9-0.9c0,0-5,0.9-7.4,0.3l1.3-1c0,0-4.2,0.4-5.8-0.1l0.7-0.6c0,0-3.9-0.2-4.7-0.7l1.2-0.7c0,0-4.3,0.2-5.3-0.6l1-0.5
					c0,0-1.1-0.1-2.5-0.4c-1.4-0.3-3.1-0.9-4.2-1.8c0,0,0,0,0,0c-0.3-3,1.8-6.8,1.8-6.8l-1,0.6c-0.1-1.2,2.4-4.8,2.4-4.8l-1.2,0.6
					c0-0.9,1.9-4.3,1.9-4.3l-0.9,0.2c0.4-1.6,3-4.9,3-4.9L48,199c0.8-2.3,4.2-6,4.2-6l-1.3,0.2c0.7-1.5,4.1-4.6,4.1-4.6l-1.4,0.2
					c0.8-2,4.5-4.4,4.5-4.4l-1.3,0c0.9-1.8,6-4.4,6-4.4l-1.3,0c0.8-2,6.9-4,6.9-4l-1.4-0.4c3-2.6,8.5-2.9,8.5-2.9L74.4,171.7z"/>
				<path class="st10" d="M75.6,172.6c0,0-5.5,0.4-8.5,2.9l1.4,0.4c0,0-6.1,2-6.9,4l1.3,0c0,0-5.1,2.6-6,4.4l1.3,0
					c0,0-3.7,2.4-4.5,4.4l1.4-0.2c0,0-3.3,3.1-4.1,4.6l1.3-0.2c0,0-3.5,3.7-4.2,6l1.5-0.5c0,0-2.6,3.3-3,4.9l0.9-0.2
					c0,0-1.9,3.4-1.9,4.3l1.2-0.6c0,0-2.5,3.6-2.4,4.8l1-0.6c0,0-2,3.9-1.8,6.8l0,0c0,0,0,0,0,0c0,0,0,0,0,0l0,0
					c0.1,0.1,0.2,0.1,0.2,0.2l74.3-40.7c0-0.1,0-0.2,0-0.3l0,0c0,0,0,0,0,0c0,0,0,0,0,0l0,0c-3.6-2-16.1-8.5-21.5-7.7l1.5,1.9
					c0,0-8.1-3.4-9.6-2.7l1.6,1.8c0,0-6.6-1.6-8.8-0.8l1.4,1.3c0,0-5.8-0.4-8.3,0.9L75.6,172.6z"/>
				<path class="st11" d="M69.4,177.5c0.8,0.5,19.7,10.9,23.2,13.4c1.6-0.9,3.1-1.7,4.7-2.6c-4.3-2.8-20.4-13.3-20.6-13.4
					c-0.1-0.1-0.1-0.2-0.1-0.3c0.1-0.1,0.2-0.1,0.3-0.1c0.2,0.1,16.9,10.9,20.8,13.6c1.6-0.9,3.2-1.8,4.9-2.7
					c-2.7-2-18.4-12-18.6-12.1c-0.1-0.1-0.1-0.2-0.1-0.3c0.1-0.1,0.2-0.1,0.3-0.1c0.7,0.4,16.5,10.6,18.8,12.3
					c1.5-0.8,3-1.6,4.5-2.5c-2.9-2.3-16.2-10.4-16.3-10.5c-0.1-0.1-0.1-0.2-0.1-0.3c0.1-0.1,0.2-0.1,0.3-0.1
					c0.6,0.4,13.9,8.4,16.5,10.6c1.5-0.8,3-1.6,4.5-2.5c-3.9-2.6-12.1-7-12.2-7.1c-0.1-0.1-0.2-0.2-0.1-0.3c0.1-0.1,0.2-0.1,0.3-0.1
					c0.1,0,8.6,4.6,12.4,7.2c1.7-0.9,3.3-1.8,5-2.8c0.1,0.1,0.2,0.1,0.2,0.1c0,0,0,0,0,0c0,0.3-0.1,0.7-0.1,1.1
					c-1.5,0.8-3.1,1.7-4.6,2.5c0.1,4.7-0.6,14.4-0.6,14.5c0,0.1-0.1,0.2-0.2,0.2c-0.1,0-0.2-0.1-0.2-0.2c0-0.1,0.7-9.5,0.6-14.2
					c-1.5,0.8-3,1.7-4.5,2.5c0.5,3.2,0.1,19,0.1,19.7c0,0.1-0.1,0.2-0.2,0.2c-0.1,0-0.2-0.1-0.2-0.2c0-0.2,0.4-16-0.1-19.5
					c-1.5,0.8-3,1.6-4.5,2.4c0.2,2.5,0.3,21.7,0.3,22.5c0,0.1-0.1,0.2-0.2,0.2c-0.1,0-0.2-0.1-0.2-0.2c0-0.2,0-19.2-0.2-22.3
					c-1.7,0.9-3.3,1.8-4.9,2.7c0.1,4.6,0.2,24.7,0.2,24.9c0,0.1-0.1,0.2-0.2,0.2c-0.1,0-0.2-0.1-0.2-0.2c0-0.2-0.1-19.7-0.2-24.7
					c-1.6,0.9-3.2,1.7-4.8,2.6c0.3,4.1-1.1,25.9-1.2,26.8c0,0.1-0.1,0.2-0.2,0.2c-0.1,0-0.2-0.1-0.2-0.2c0-0.2,1.4-22,1.2-26.6
					c-1.7,1-3.5,1.9-5.1,2.8c0.4,3.1-1.9,24.9-2,25.8c0,0.1-0.1,0.2-0.3,0.2c-0.1,0-0.2-0.1-0.2-0.2c0-0.2,2.3-22,2-25.6
					c-2,1.1-4,2.2-6,3.2c-0.1,2.1-1.3,24.1-1.3,24.4l-0.5,0c0-0.2,1.1-20.8,1.3-24.1c-1.6,0.9-3.2,1.7-4.7,2.6
					c0.2,2.7-1.6,20.8-1.7,21.6c0,0.1-0.1,0.2-0.2,0.2c-0.1,0-0.2-0.1-0.2-0.2c0-0.2,1.8-18,1.7-21.3c-1.6,0.9-3.2,1.7-4.8,2.6
					c-0.1,2.8-2.4,18.2-2.5,18.9c0,0.1-0.1,0.2-0.3,0.2c-0.1,0-0.2-0.1-0.2-0.3c0-0.2,2.3-15.2,2.5-18.6c-1.9,1-3.6,2-5.3,2.9
					c-0.3,2.3-3.5,14.3-3.6,14.8c0,0.1-0.2,0.2-0.3,0.2c-0.1,0-0.2-0.2-0.2-0.3c0-0.1,3.1-11.6,3.6-14.4c-1.9,1-3.7,2-5.4,2.9
					c0,0,0,0,0,0c0,0.1-0.1,0.1-0.2,0.1c-0.5,2.1-2.8,9.8-2.9,10.2c0,0.1-0.2,0.2-0.3,0.2c-0.1,0-0.2-0.2-0.2-0.3
					c0-0.1,2.2-7.4,2.8-9.8c-2.2,1.2-4.2,2.2-5.9,3.1c0,0,0,0,0,0.1c0,0,0,0.1-0.1,0.1c-0.2,1.2-1.3,5.2-1.3,5.3
					c0,0.1-0.2,0.2-0.3,0.2c-0.1,0-0.2-0.2-0.2-0.3c0,0,1-3.6,1.3-5c-3.6,1.9-5.6,2.9-5.6,2.8c0-0.1,1.9-1.2,5.3-3.2
					c-1.4-0.5-4.8-1.6-4.8-1.6c-0.1,0-0.2-0.2-0.1-0.3c0-0.1,0.2-0.2,0.3-0.1c0.2,0.1,4.1,1.3,5.2,1.8l0,0c1.6-0.9,3.6-2,5.8-3.3
					c-2.5-0.8-9.6-2.9-9.7-2.9c-0.1,0-0.2-0.2-0.2-0.3c0-0.1,0.2-0.2,0.3-0.2c0.4,0.1,8,2.3,10.1,3c1.7-0.9,3.5-2,5.5-3.1
					c-2.8-1.2-13.9-4.7-14-4.7c-0.1,0-0.2-0.2-0.1-0.3c0-0.1,0.2-0.2,0.3-0.1c0.5,0.2,12.1,3.8,14.4,4.9c1.7-0.9,3.4-1.9,5.3-2.9
					c-3.2-1.7-16.8-7.8-16.9-7.8c-0.1-0.1-0.2-0.2-0.1-0.3c0.1-0.1,0.2-0.2,0.3-0.1c0.6,0.3,14.5,6.5,17.2,8
					c1.5-0.8,3.1-1.7,4.7-2.6c-3-1.9-18.7-9.9-18.8-10c-0.1-0.1-0.2-0.2-0.1-0.3c0.1-0.1,0.2-0.2,0.3-0.1
					c0.7,0.4,16.6,8.4,19.1,10.1c1.5-0.8,3.1-1.7,4.7-2.6C77,196,59.4,186,59.2,185.9c-0.1-0.1-0.1-0.2-0.1-0.3
					c0.1-0.1,0.2-0.2,0.3-0.1c0.2,0.1,19,10.8,21.1,12c1.9-1.1,3.9-2.2,6-3.3c-3.1-2.2-22.4-11.9-22.6-12c-0.1-0.1-0.2-0.2-0.1-0.3
					c0.1-0.1,0.2-0.2,0.3-0.1c0.8,0.4,20.1,10.1,22.8,12.2c1.7-0.9,3.4-1.9,5.1-2.8c-3.9-2.7-22.7-13.1-22.9-13.2
					c-0.1-0.1-0.1-0.2-0.1-0.3C69.1,177.4,69.3,177.4,69.4,177.5z"/>
			</g>
		</g>
	</g>
	<path class="st2" d="M373.2,157.8"/>
	<g>
		<g>
			<path class="st12" d="M357.3,41.3c0,0,14.8-6.5,17.6-8.8c2.8-2.3-0.9-2.9-0.9-2.9s-0.9,1.8-2.1,2.9c-1.2,1.1-15.4,7.3-15.4,7.3
				L357.3,41.3z"/>
			<g>
				<path class="st5" d="M319,30.6c2.6-1.3,8.5-0.7,8.5-0.7l-1.4-1.4c2.2-0.8,9,1.1,9,1.1l-1.6-1.9c1.6-0.6,9.8,3.1,9.8,3.1l-1.5-2
					c2.8-0.3,7.3,1.3,11.6,3.2c4.1,1.9,8,4.1,9.9,5.2c0.1,0.1,0.2,0.1,0.2,0.1c0,0,0,0,0,0c0,0.3-0.1,0.7-0.1,1.1
					c-0.6,5.2-2.2,17.8-5.7,21.6l-0.7-2.4c0,0-1.8,8.8-3.2,9.7l-0.6-2.4c0,0-2.4,6.6-4.3,7.9l-0.3-1.9c0,0-3,5.1-5.6,6.5l-0.2-1.5
					c0,0-3.5,4.4-7.4,5.5l0.5-1.4c0,0-5.3,4-7.4,3.5l0.7-1.1c0,0-5.2,2.8-7.2,2.5l0.8-1.1c0,0-4.2,1.8-6.3,1.3l0.9-1.1
					c0,0-4.6,1-6.2,0.8l0.9-0.9c0,0-5.2,0.8-7.6,0.1l1.3-1c0,0-4.3,0.3-5.9-0.3l0.7-0.6c0,0-4-0.3-4.7-0.9l1.2-0.7
					c0,0-4.4,0-5.4-0.7l1.1-0.5c0,0-1.1-0.1-2.5-0.5c-1.4-0.4-3.1-1-4.3-1.9c0,0,0,0,0,0c-0.2-3.1,2-6.9,2-6.9l-1,0.6
					c-0.1-1.2,2.5-4.8,2.5-4.8l-1.3,0.6c0-1,2.1-4.4,2.1-4.4l-0.9,0.2c0.5-1.6,3.2-5,3.2-5l-1.6,0.5c0.9-2.3,4.5-6.1,4.5-6.1
					l-1.3,0.2c0.8-1.5,4.3-4.6,4.3-4.6l-1.4,0.1c0.9-2,4.8-4.4,4.8-4.4l-1.3,0c0.9-1.8,6.3-4.4,6.3-4.4l-1.3-0.1
					c0.8-2,7.2-3.9,7.2-3.9l-1.4-0.4c3.2-2.5,8.8-2.8,8.8-2.8L319,30.6z"/>
				<path class="st6" d="M320.2,31.6c0,0-5.6,0.2-8.8,2.8l1.4,0.4c0,0-6.3,1.9-7.2,3.9l1.3,0.1c0,0-5.3,2.6-6.3,4.4l1.3,0
					c0,0-3.9,2.3-4.8,4.4l1.4-0.1c0,0-3.5,3.1-4.3,4.6l1.3-0.2c0,0-3.6,3.7-4.5,6.1l1.6-0.5c0,0-2.7,3.3-3.2,5l0.9-0.2
					c0,0-2.1,3.4-2,4.4l1.3-0.6c0,0-2.6,3.6-2.6,4.8l1-0.6c0,0-2.2,3.9-2,6.9l0,0c0,0,0,0,0,0c0,0,0,0,0,0l0,0
					c0.1,0.1,0.2,0.1,0.2,0.2l77.3-39.6c0-0.1,0-0.2,0-0.3l0,0c0,0,0,0,0,0c0,0,0,0,0,0l0,0c-3.6-2.1-16.3-9.2-21.8-8.5l1.5,2
					c0,0-8.2-3.7-9.8-3.1l1.6,1.9c0,0-6.8-1.9-9-1.1l1.4,1.4c0,0-5.9-0.6-8.5,0.7L320.2,31.6z"/>
				<path class="st8" d="M313.7,36.4c0.8,0.5,19.8,11.7,23.4,14.4c1.6-0.8,3.3-1.7,4.9-2.5c-4.3-3-20.6-14.2-20.7-14.3
					c-0.1-0.1-0.1-0.2-0.1-0.3c0.1-0.1,0.2-0.1,0.3-0.1c0.2,0.1,17,11.7,20.9,14.5c1.7-0.9,3.4-1.7,5.1-2.6
					c-2.7-2.1-18.5-12.9-18.7-13c-0.1-0.1-0.1-0.2-0.1-0.3c0.1-0.1,0.2-0.1,0.3-0.1c0.7,0.5,16.6,11.3,18.9,13.1
					c1.5-0.8,3.1-1.6,4.7-2.4c-2.9-2.5-16.3-11.1-16.4-11.2c-0.1-0.1-0.1-0.2-0.1-0.3c0.1-0.1,0.2-0.1,0.3-0.1
					c0.6,0.4,14,9,16.6,11.4c1.5-0.8,3.1-1.6,4.7-2.4c-4-2.8-12.2-7.6-12.3-7.6c-0.1-0.1-0.2-0.2-0.1-0.3c0.1-0.1,0.2-0.1,0.3-0.1
					c0.1,0.1,8.6,5,12.5,7.8c1.7-0.9,3.5-1.8,5.2-2.7c0.1,0.1,0.2,0.1,0.2,0.1c0,0,0,0,0,0c0,0.3-0.1,0.7-0.1,1.1
					c-1.6,0.8-3.2,1.6-4.8,2.4c0,4.8-1,14.7-1,14.8c0,0.1-0.1,0.2-0.3,0.2c-0.1,0-0.2-0.1-0.2-0.3c0-0.1,1-9.7,1-14.5
					c-1.6,0.8-3.2,1.6-4.7,2.4c0.4,3.3-0.4,19.5-0.5,20.2c0,0.1-0.1,0.2-0.2,0.2c-0.1,0-0.2-0.1-0.2-0.2c0-0.2,0.8-16.4,0.5-20
					c-1.6,0.8-3.1,1.6-4.7,2.4c0.2,2.5-0.4,22.2-0.4,23.1c0,0.1-0.1,0.2-0.2,0.2c-0.1,0-0.2-0.1-0.2-0.2c0-0.2,0.5-19.7,0.4-22.8
					c-1.7,0.9-3.4,1.7-5.1,2.6c0,4.7-0.5,25.3-0.5,25.5c0,0.1-0.1,0.2-0.2,0.2c-0.1,0-0.2-0.1-0.2-0.2c0-0.2,0.4-20.2,0.5-25.3
					c-1.7,0.9-3.3,1.7-4.9,2.5c0.2,4.2-1.9,26.5-2,27.5c0,0.1-0.1,0.2-0.3,0.2c-0.1,0-0.2-0.1-0.2-0.3c0-0.2,2-22.5,2-27.2
					c-1.8,0.9-3.6,1.8-5.4,2.7c0.3,3.1-2.6,25.5-2.8,26.4c0,0.1-0.1,0.2-0.3,0.2c-0.1,0-0.2-0.1-0.2-0.3c0-0.2,2.9-22.4,2.8-26.1
					c-2.1,1.1-4.2,2.1-6.2,3.2c-0.2,2.1-2,24.7-2,24.9l-0.5,0c0-0.2,1.7-21.3,2-24.6c-1.7,0.9-3.3,1.7-4.9,2.5
					c0.1,2.8-2.3,21.3-2.4,22.1c0,0.1-0.1,0.2-0.3,0.2c-0.1,0-0.2-0.1-0.2-0.3c0-0.2,2.3-18.4,2.4-21.8c-1.7,0.9-3.4,1.7-5,2.5
					c-0.2,2.9-3,18.6-3.1,19.3c0,0.1-0.1,0.2-0.3,0.2c-0.1,0-0.2-0.1-0.2-0.3c0-0.2,2.8-15.5,3.1-19c-1.9,1-3.8,1.9-5.5,2.8
					c-0.3,2.3-4,14.5-4.2,15.1c0,0.1-0.2,0.2-0.3,0.2c-0.1,0-0.2-0.2-0.2-0.3c0-0.1,3.5-11.8,4.1-14.7c-2,1-3.9,1.9-5.6,2.8
					c0,0,0,0,0,0c0,0.1-0.1,0.1-0.2,0.1c-0.6,2.1-3.1,10-3.2,10.3c0,0.1-0.2,0.2-0.3,0.2c-0.1,0-0.2-0.2-0.2-0.3
					c0-0.1,2.5-7.5,3.2-10c-2.3,1.2-4.4,2.2-6.1,3c0,0,0,0,0,0.1c0,0,0,0.1-0.1,0.1c-0.3,1.3-1.5,5.3-1.5,5.4c0,0.1-0.2,0.2-0.3,0.2
					c-0.1,0-0.2-0.2-0.2-0.3c0,0,1.1-3.7,1.4-5.1c-3.7,1.8-5.8,2.8-5.8,2.7c0-0.1,1.9-1.2,5.6-3.1c-1.5-0.6-4.9-1.8-4.9-1.8
					c-0.1,0-0.2-0.2-0.1-0.3c0-0.1,0.2-0.2,0.3-0.1c0.2,0.1,4.1,1.4,5.3,2l0,0c1.7-0.9,3.7-2,6.1-3.2c-2.5-0.9-9.8-3.2-9.8-3.2
					c-0.1,0-0.2-0.2-0.2-0.3c0-0.1,0.2-0.2,0.3-0.2c0.4,0.1,8.1,2.6,10.3,3.4c1.8-0.9,3.7-1.9,5.7-3c-2.8-1.3-14.1-5.2-14.2-5.2
					c-0.1,0-0.2-0.2-0.1-0.3c0-0.1,0.2-0.2,0.3-0.1c0.5,0.2,12.3,4.2,14.6,5.4c1.7-0.9,3.6-1.9,5.5-2.9c-3.2-1.8-17-8.4-17.1-8.5
					c-0.1-0.1-0.2-0.2-0.1-0.3c0.1-0.1,0.2-0.2,0.3-0.1c0.6,0.3,14.7,7.1,17.4,8.7c1.6-0.8,3.2-1.7,4.9-2.6
					c-3-2.1-18.8-10.7-19-10.8c-0.1-0.1-0.2-0.2-0.1-0.3c0.1-0.1,0.2-0.2,0.3-0.1c0.7,0.4,16.8,9.1,19.3,10.9
					c1.6-0.8,3.2-1.7,4.9-2.5c-3.1-1.9-20.9-12.6-21.1-12.7c-0.1-0.1-0.1-0.2-0.1-0.3c0.1-0.1,0.2-0.1,0.3-0.1
					c0.2,0.1,19.1,11.6,21.3,12.9c2-1,4.1-2.1,6.2-3.2c-3.2-2.4-22.6-12.8-22.8-12.9c-0.1-0.1-0.2-0.2-0.1-0.3
					c0.1-0.1,0.2-0.2,0.3-0.1c0.8,0.5,20.3,10.9,23,13.1c1.7-0.9,3.5-1.8,5.3-2.8c-3.9-2.9-22.9-14.1-23.1-14.2
					c-0.1-0.1-0.1-0.2-0.1-0.3C313.4,36.4,313.6,36.4,313.7,36.4z"/>
			</g>
		</g>
	</g>
	<g>
		<g>
			<path class="st0" d="M282.5,106.8c0,0,17.7,13.8,22.5,15.8c4.8,1.9,3-3.1,3-3.1s-2.8,0.1-4.9-0.6c-2.2-0.7-19.1-14.1-19.1-14.1
				L282.5,106.8z"/>
			<path class="st1" d="M318,88.2l-8.3,10.2c0,0,5.7,2.3,8.4,3.5l-15,5.2c0,0,2.4,2.1,4.1,4.4l-15.9-0.8l-2.6-0.1l0.2,0.3l7.3,16.6
				c-2.8-0.8-5.6-2.2-5.6-2.2l0.5,15.8c-2.1-2.1-6.3-6.6-6.3-6.6l-6.6,11.4c-3.7-3-7.2-13.1-7.2-13.1c-4.3,4.1-13.9,8.9-13.9,8.9
				c-0.4-4.2,2.6-11.5,2.6-11.5c-5.5,1.8-19.6-1.6-20.1-1.7l5.5-4c-5.6-0.2-20.6-7.8-20.6-7.8c4-3.5,14.3-7.8,14.3-7.8l-3.4-2.2
				c3.9-1.1,13-0.1,13.5,0c-12.2-2.5-19.6-11.9-19.6-11.9l8-0.2c-3.3-1.4-10.5-9.3-10.5-9.3l7.2-0.5c-2.6-2-4.4-11-5.1-14.7
				c-0.1-0.3-0.1-0.6-0.1-0.8c0.2,0,0.5-0.1,0.8-0.2c3.6-0.7,12.7-2.3,15.5-0.5l-2.1-6.9c0,0,10,3.9,12.5,6.5l-2.7-7.5
				c0,0,11.4,3.6,18.1,14.1c-0.3-0.5-4.4-8.6-4.8-12.6l3.3,2.4c0,0,0.4-11.2,2.2-16.2c0,0,12.5,11.3,14.6,16.4l1.7-6.6
				c0.3,0.4,8.5,12.3,8.8,18.1c0,0,5.7-5.4,9.8-6.5c0,0-1,10.7-3.3,16.2C303.2,86.2,313.8,85.8,318,88.2z"/>
			<path class="st2" d="M289.8,110.7l17.4,0.9c-1.7-2.3-4.1-4.4-4.1-4.4l15-5.2c-2.7-1.2-8.4-3.5-8.4-3.5l8.3-10.2
				c-4.2-2.4-14.8-2-14.8-2c2.3-5.5,3.3-16.2,3.3-16.2c-4,1.1-9.8,6.5-9.8,6.5c-0.3-5.8-8.5-17.7-8.8-18.1l-1.7,6.6
				c-2.2-5.1-14.6-16.4-14.6-16.4c-1.8,5-2.2,16.2-2.2,16.2l-3.3-2.4c0.4,4,4.5,12.1,4.8,12.6c-6.7-10.5-18.1-14.1-18.1-14.1
				l2.7,7.5c-2.5-2.6-12.5-6.5-12.5-6.5l2.1,6.9c-2.8-1.8-11.9-0.2-15.5,0.5c-0.3,0.1-0.5,0.1-0.8,0.2l8.5,5.2L289.8,110.7z"/>
			<path class="st3" d="M281.1,103.8l1.3,0.9c8.7-12.3,8.6-33.6,8.6-33.8c0-0.1,0.1-0.3,0.3-0.3c0.2,0,0.3,0.1,0.3,0.3
				c0,0.2,0.1,21.4-8.5,33.9c-0.1,0.1-0.1,0.2-0.2,0.3l1.5,1.1c11.7-13.8,17.7-29,17.8-29.2c0.1-0.2,0.2-0.2,0.4-0.2
				c0.1,0.1,0.2,0.2,0.2,0.4c0,0.1-4,10-11.7,21.2c-1.9,2.7-3.9,5.4-6.2,8.1l1.4,1c1.9-1.4,3.8-2.9,5.6-4.3
				c6.8-5.4,13.3-10.4,19.9-12.6c0.2,0,0.3,0,0.4,0.2c0,0.1,0,0.2,0,0.3c0,0-0.1,0.1-0.1,0.1c-6.5,2.2-12.9,7.2-19.7,12.5
				c-1.8,1.4-3.6,2.8-5.4,4.2c1.5,1,3,2.1,4.5,3.1l-2.6-0.1l0.2,0.3c-1-0.7-2-1.4-3-2.1c-0.6,2.2-1.3,4.4-2,6.6
				c-2.5,8.2-5,16-4.7,22.9c0,0.1,0,0.1,0,0.2c0,0.1-0.1,0.1-0.2,0.1c-0.2,0-0.3-0.1-0.3-0.3c-0.3-6.9,2.1-14.8,4.7-23.1
				c0.7-2.2,1.4-4.5,2-6.7l-1.4-1c-1.7,3.1-3.6,6-5.4,8.7c-7.7,11.1-15.5,18.4-15.6,18.4c-0.1,0.1-0.3,0.1-0.4,0
				c-0.1-0.1-0.1-0.3,0-0.4c0.1-0.1,12.2-11.2,20.9-27l-1.5-1.1c-0.1,0.1-0.1,0.2-0.2,0.3c-8.6,12.4-28.4,19.9-28.6,20
				c-0.1,0.1-0.3,0-0.4-0.2c-0.1-0.1,0-0.3,0.2-0.4c0.2-0.1,20.2-7.6,28.5-20.1l-1.3-0.9c-19,12.8-44.1,11.8-44.3,11.8
				c-0.2,0-0.3-0.1-0.3-0.3c0-0.2,0.1-0.3,0.3-0.3c0.3,0,25,1,43.8-11.6c-3-2.1-5.9-4.1-8.6-6c-17,8.8-30.9,0.4-31,0.3
				c-0.1-0.1-0.2-0.3-0.1-0.4c0.1-0.2,0.3-0.2,0.4-0.1c0.1,0.1,13.6,8.2,30.2-0.2c-4.7-3.3-9-6.3-12.9-9
				c-12.2,3.9-23.1-0.4-23.2-0.4c-0.2-0.1-0.2-0.2-0.2-0.4c0.1-0.2,0.2-0.2,0.4-0.2c0.1,0,10.5,4.2,22.4,0.6
				c-12.4-8.7-20-14.2-19.9-14.4c0.1-0.2,8,5,20.6,13.5c-0.8-12.4-8.4-20.6-8.5-20.7c-0.1-0.1-0.1-0.3,0-0.4c0.1-0.1,0.3-0.1,0.4,0
				c0.1,0.1,8,8.7,8.7,21.5c3.9,2.7,8.3,5.6,13,8.8c1-9.4-1.8-16.5-4.3-20.8c-2.9-4.9-6.2-7.5-6.2-7.5c-0.1-0.1-0.2-0.3-0.1-0.4
				c0.1-0.1,0.3-0.1,0.4-0.1c0.1,0.1,12.9,10.1,10.8,29.1c2.8,1.9,5.7,3.9,8.7,5.9c5-22-4.7-44.8-4.8-45c-0.1-0.1,0-0.3,0.1-0.4
				c0.1-0.1,0.3,0,0.4,0.1C276.4,58.4,286.3,81.5,281.1,103.8z"/>
		</g>
	</g>
	<g>
		<g>
			<path class="st13" d="M185.4,88.6c0,0,21.7,8.7,27,9.3c5.3,0.6,2.1-3.9,2.1-3.9s-2.7,0.9-5.1,0.8c-2.4-0.1-23.2-8.6-23.2-8.6
				L185.4,88.6z"/>
			<path class="st9" d="M215.5,59.8l-5.4,12.6c0,0,6.4,0.7,9.5,1.1L206.2,83c0,0,3,1.4,5.3,3.2L195.3,90l-2.6,0.6l0.3,0.3l12.1,14.6
				c-3,0-6.2-0.6-6.2-0.6l5,15.7c-2.7-1.5-8.2-4.8-8.2-4.8l-3.3,13.3c-4.6-2-10.9-11.1-10.9-11.1c-3.2,5.3-11.4,12.9-11.4,12.9
				c-1.6-4-0.7-12.2-0.7-12.2c-5,3.4-20.1,4-20.6,4l4.4-5.5c-5.6,1.4-22.8-1.9-22.8-1.9c3-4.6,12.1-11.9,12.1-11.9l-4-1.2
				c3.6-2.2,12.9-3.8,13.5-3.9c-12.9,1-23-6.3-23-6.3l7.9-2.5c-3.7-0.4-13.2-6.3-13.2-6.3l7-2.6c-3.2-1.2-7.6-9.8-9.3-13.2
				c-0.1-0.3-0.3-0.5-0.3-0.7c0.2-0.1,0.4-0.2,0.7-0.4c3.4-1.7,12-5.9,15.4-5L133,55c0,0,11.1,1,14.3,3l-4.8-6.8
				c0,0,12.5,0.3,22.2,8.9c-0.4-0.4-6.9-7.3-8.4-11.3l4,1.4c0,0-2.9-11.3-2.5-16.8c0,0,15.7,7.7,19.3,12.2l-0.2-7
				c0.4,0.3,12.1,9.9,14,15.6c0,0,4.2-7.1,7.9-9.3c0,0,2,11,1.3,17.1C200.1,62,210.7,58.6,215.5,59.8z"/>
			<path class="st10" d="M193.8,90.4l17.7-4.2c-2.4-1.8-5.3-3.2-5.3-3.2l13.5-9.5c-3.1-0.4-9.5-1.1-9.5-1.1l5.4-12.6
				c-4.9-1.2-15.4,2.3-15.4,2.3c0.7-6.2-1.3-17.1-1.3-17.1c-3.7,2.3-7.9,9.3-7.9,9.3c-1.9-5.7-13.6-15.3-14-15.6l0.2,7
				c-3.6-4.5-19.3-12.2-19.3-12.2c-0.4,5.5,2.5,16.8,2.5,16.8l-4-1.4c1.6,3.9,8,10.8,8.4,11.3c-9.7-8.6-22.2-8.9-22.2-8.9l4.8,6.8
				c-3.2-1.9-14.3-3-14.3-3l4.1,6.3c-3.3-1-12,3.2-15.4,5c-0.3,0.1-0.5,0.3-0.7,0.4l10,2.7L193.8,90.4z"/>
			<path class="st11" d="M183.2,86l1.5,0.5c5.2-14.8-1.1-36.1-1.1-36.3c0-0.1,0-0.3,0.2-0.4c0.2,0,0.3,0,0.4,0.2
				c0.1,0.2,6.3,21.4,1.3,36.3c0,0.1-0.1,0.2-0.1,0.3l1.8,0.6c7.7-17.2,9.4-34.2,9.4-34.3c0-0.2,0.2-0.3,0.3-0.3
				c0.2,0,0.3,0.2,0.3,0.3c0,0.1-1.1,11.2-5.6,24.5c-1.1,3.2-2.4,6.6-3.9,9.9l1.7,0.6c1.5-2,2.9-4,4.3-5.9
				c5.3-7.3,10.3-14.2,16.3-18.3c0.1-0.1,0.3-0.1,0.4,0.1c0.1,0.1,0.1,0.2,0,0.3c0,0.1-0.1,0.1-0.1,0.2c-5.9,4-10.8,10.9-16.1,18.2
				c-1.4,1.9-2.8,3.8-4.2,5.8c1.8,0.6,3.6,1.2,5.4,1.8l-2.6,0.6l0.3,0.3c-1.2-0.4-2.4-0.8-3.6-1.2c0,2.4,0,4.8-0.1,7.2
				c-0.2,9-0.3,17.5,1.9,24.2c0,0.1,0,0.1,0,0.2c0,0.1-0.1,0.2-0.2,0.2c-0.2,0-0.3,0-0.4-0.2c-2.3-6.8-2.1-15.4-2-24.4
				c0.1-2.4,0.1-4.9,0.1-7.3l-1.7-0.6c-0.8,3.6-1.8,7-2.9,10.2c-4.5,13.3-10.2,22.8-10.3,22.9c-0.1,0.1-0.3,0.2-0.4,0.1
				c-0.1-0.1-0.2-0.3-0.1-0.4c0.1-0.1,8.9-14.7,13.2-33.1l-1.8-0.6c0,0.1-0.1,0.2-0.1,0.3c-5,14.9-22.7,28.1-22.9,28.2
				c-0.1,0.1-0.3,0.1-0.4-0.1c-0.1-0.1-0.1-0.3,0.1-0.4c0.2-0.1,18-13.4,22.8-28.3l-1.5-0.5C167.4,105.7,142,112,141.7,112
				c-0.2,0-0.3-0.1-0.3-0.2c0-0.2,0.1-0.3,0.2-0.4c0.3-0.1,25.3-6.2,40.5-24.2c-3.6-1.2-7.1-2.4-10.4-3.5
				c-14.5,13.7-30.8,9.3-30.9,9.3c-0.2,0-0.2-0.2-0.2-0.4c0-0.2,0.2-0.2,0.4-0.2c0.2,0,16,4.3,30.1-8.9c-5.6-1.9-10.8-3.7-15.5-5.3
				c-11.1,7.4-23.2,6.2-23.3,6.2c-0.2,0-0.3-0.2-0.3-0.3c0-0.2,0.2-0.3,0.3-0.3c0.1,0,11.7,1.2,22.5-5.9c-14.9-5.1-24.1-8.5-24-8.7
				c0.1-0.2,9.5,2.7,24.4,7.5c-4.4-12.1-14.3-18.2-14.5-18.3c-0.1-0.1-0.2-0.3-0.1-0.4c0.1-0.1,0.3-0.2,0.4-0.1
				c0.1,0.1,10.5,6.4,14.9,19c4.7,1.5,9.9,3.2,15.6,5.1c-1.7-9.7-6.5-16-10.3-19.6c-4.3-4.1-8.4-5.7-8.4-5.7
				c-0.2-0.1-0.3-0.2-0.2-0.4c0.1-0.2,0.2-0.2,0.4-0.2c0.2,0.1,15.8,6.4,19.1,26c3.3,1.1,6.8,2.2,10.4,3.4
				c-1.3-23.5-17.6-43.5-17.7-43.7c-0.1-0.1-0.1-0.3,0-0.4c0.1-0.1,0.3-0.1,0.4,0C165.4,42,181.9,62.2,183.2,86z"/>
		</g>
	</g>
	<g>
		<g>
			<path class="st13" d="M339.2,128.6c0,0,22.2-6.6,26.7-9.5s-0.8-4.3-0.8-4.3s-1.5,2.4-3.4,3.8c-1.9,1.4-23.3,7.6-23.3,7.6
				L339.2,128.6z"/>
			<path class="st9" d="M297.8,97.7L290,86.3c14.4,3.3,28.1,21,28.1,21c1.3-6.2-0.3-26.9-0.3-26.9c12,9.8,18.1,33.2,18.1,33.2
				l2.1-10.7c2.5,7,2.4,17.6,2.1,23.5c0,0.3,0,0.6,0,0.8c0.2,0.2,0.4,0.4,0.6,0.6c4,4.3,11,12.4,13.6,19.3l-8.5-6.8
				c0,0,10.4,21.8,7.6,37c0,0-12.2-16.9-17.2-20.7c0,0,1,22.4-7.9,34.2l-1.4-13.7c-0.2,0.6-7.4,19.8-19.4,25.6
				c0,0-0.5-23.8,8.1-34.7c0,0-7.3,6.9-10.7,7.4c0,0,4.4-14.2,10.3-22.9c-6.5,7.3-19.1,20.6-27.4,24.7l3-14.6
				c0,0-17.3,12.7-25.7,14.9l3.8-8c0,0-26.3,7.2-39.4-1.6l0,0c0,0,0,0,0,0c0,0,0,0,0,0l0,0c4.3-15.2,29.1-26.7,29.1-26.7l-8.1-3.7
				c7.8-3.8,29.2-5.2,29.2-5.2l-11.8-9.2c9-2.3,27.2-0.2,36.9,1.2c-10.2-2.9-22.7-10.9-22.7-10.9c2.9-1.8,13-1.2,13-1.2
				c-13.6-2.8-28.6-21.3-28.6-21.3C279.4,87.4,297.2,97.4,297.8,97.7z"/>
			<path class="st10" d="M297.8,97.7L290,86.3c14.4,3.3,28.1,21,28.1,21c1.3-6.2-0.3-26.9-0.3-26.9c12,9.8,18.1,33.2,18.1,33.2
				l2.1-10.7c2.7,7.3,2.4,18.6,2,24.3l-110.6,40.4c4.3-15.2,29.1-26.7,29.1-26.7l-8.1-3.7c7.8-3.8,29.2-5.2,29.2-5.2l-11.8-9.2
				c9-2.3,27.2-0.2,36.9,1.2c-10.2-2.9-22.7-10.9-22.7-10.9c2.9-1.8,13-1.2,13-1.2c-13.6-2.8-28.6-21.3-28.6-21.3
				C279.4,87.4,297.2,97.4,297.8,97.7z"/>
			<path class="st11" d="M313.3,113.7l-0.3,0.1c4.6,3,9.3,6.3,13.5,9.9c1.2-8.3-2.2-27.4-2.3-27.5l0.5-0.1
				c0.1,0.8,3.6,19.9,2.2,28.1c1.5,1.3,2.9,2.6,4.2,3.9c6.5-6.4,7.1-14.8,7.1-14.8l0.5,0c0,0.1-0.6,8.6-7.3,15.2
				c0.3,0.3,0.6,0.6,0.9,0.9c2.5-0.9,5.1-1.9,7.6-2.8c0,0.3,0,0.6,0,0.8c0.2,0.2,0.4,0.4,0.6,0.6c-2.6,0.9-5.1,1.8-7.6,2.7
				c0,0.5-0.1,1-0.1,1.4c9.3,0.7,15.3,6.9,15.4,6.9l-0.4,0.4c-0.1-0.1-5.9-6.1-15-6.8c-0.2,1.9-0.4,3.8-0.7,5.7
				c6.3,5.4,16,22.2,16.4,22.9l-0.5,0.3c-0.1-0.2-9.8-17-16-22.5c-0.9,5.5-2.3,11-4,16.3l0.3-0.1l0.2,0.7
				c3.8,10.5,2.9,20.3,2.9,20.4l-0.5-0.1c0-0.1,0.9-10.1-3-20.6c-5.7,18.3-14.2,33.4-14.3,33.6l-0.5-0.3
				c0.1-0.2,10.2-18.3,15.8-38.8c-5,4.5-17.1,16.6-17.2,16.7l-0.4-0.4c0.1-0.1,13.3-13.3,17.9-17.3c1.2-4.4,2.1-8.9,2.7-13.4
				c-3.9,2.6-12.9,11.6-13,11.7l-0.4-0.4c0.4-0.4,9.9-9.8,13.5-12.1c0.2-1.4,0.3-2.8,0.4-4.1c-6.9,2.5-13.7,5-20.1,7.3
				c-3.4,11-18.8,30.4-18.9,30.6l-0.4-0.3c0.2-0.2,15.1-19.1,18.7-30c-6.5,2.4-12.7,4.6-18.5,6.7c-7.5,16.8-22.4,27.4-22.6,27.5
				l-0.3-0.4c0.2-0.1,14.7-10.5,22.2-26.8c-8,2.9-22.1,8-22.2,8l-0.1,0c-6.2,10-15.7,15.1-15.8,15.2l-0.3-0.5
				c0.1-0.1,9.2-4.9,15.3-14.4c-17.3,6.2-27.7,9.8-27.8,9.6c-0.1-0.2,10.2-4.1,27.2-10.5c-10.6-3.2-20.5-1.1-20.6-1.1l-0.1-0.5
				c0.1,0,10.6-2.2,21.6,1.3c0.2-0.1,14.3-5.3,22.3-8.3c-16.2-7.6-33.8-6.1-34-6.1l0-0.5c0.2,0,18.3-1.5,34.8,6.4
				c5.8-2.2,12-4.4,18.5-6.8c-10-6-33.2-10.7-33.5-10.7l0.1-0.5c0.2,0.1,24.2,4.9,34,11c6.4-2.4,13.1-4.8,20.1-7.4
				c-0.9-0.9-1.8-1.9-2.8-2.8c-4.2,0.6-17.5-0.5-18.1-0.5l0-0.5c0.1,0,12.9,1.1,17.5,0.6c-3.3-3-7-5.9-10.7-8.5
				c-6-0.1-24.6-1.6-24.8-1.7l0-0.5c0.2,0,17.2,1.4,23.9,1.6c-17.5-12.1-36.9-19.4-37.1-19.5l0.2-0.5c0.2,0.1,16.4,6.2,32.6,16.5
				c-3.8-10.5-10.9-17.6-10.9-17.7l0.4-0.4c0.1,0.1,7.1,7,10.9,17.5L313.3,113.7z"/>
		</g>
	</g>
	<g>
		<g>
			<g>
				<path class="st14" d="M238.8,103.6l-1.9-5.4c9.3,3.8,18.1,17.5,18.1,17.5l-0.4-6.2c5.5,3.5,12.8,21.8,13.7,25.4
					c0.1,0.3,0.1,0.5,0.1,0.6c0,0.1,0,0.3-0.1,0.7c-1,3.9-8.2,21.9-13.6,25.3l0.4-6.2c0,0-8.8,13.7-18.1,17.5l1.9-5.4
					c-0.4,0.2-13.5,8.5-20.5,6.2l2.1-3.8c0,0-8.4,3-14.7-0.6l2.8-3.8c0,0-9.4,1-15.7-3.3l4.6-2.1c0,0-10-2.9-14.4-7.7l3.9,0.2
					c0,0-9.9-6.5-12.3-10.1l2.4-0.8c0,0-8.4-5.5-9.3-6.1c0.9-0.5,9.3-6,9.3-6l-2.4-0.8c2.4-3.6,12.3-10.1,12.3-10.1l-3.9,0.2
					c4.3-4.7,14.4-7.7,14.4-7.7l-4.6-2.1c6.3-4.2,15.7-3.3,15.7-3.3l-2.8-3.8c6.3-3.6,14.7-0.7,14.7-0.7l-2.1-3.7
					C225.2,95.1,238.4,103.4,238.8,103.6z"/>
				<path class="st15" d="M238.8,103.6l-1.9-5.4c9.3,3.8,18.1,17.5,18.1,17.5l-0.5-6.2c6,3.7,14,25,13.7,26H167.9
					c0.9-0.5,9.3-6.1,9.3-6.1l-2.4-0.8c2.4-3.6,12.3-10.1,12.3-10.1l-3.9,0.2c4.3-4.7,14.4-7.7,14.4-7.7l-4.6-2.1
					c6.3-4.3,15.7-3.3,15.7-3.3l-2.8-3.8c6.3-3.6,14.7-0.7,14.7-0.7l-2.1-3.8C225.2,95.1,238.4,103.4,238.8,103.6z"/>
				<path class="st7" d="M223.1,102.2c0.2,0.2,21.8,22.6,26.3,32.7c2.1,0,4.3,0,6.5,0c-1.9-8.6-16.3-29.4-16.5-29.6
					c-0.1-0.1-0.1-0.2,0.1-0.3c0.1-0.1,0.2,0,0.3,0.1c0.6,0.9,14.7,21.2,16.6,29.9c1.7,0,3.3,0,5,0v0c0-1-4.5-13-6.2-17.5
					c0-0.1,0-0.3,0.1-0.3c0.1,0,0.3,0,0.3,0.1c0.6,1.7,6.2,16.3,6.2,17.6v0h6.3c0.1,0.3,0.1,0.5,0.1,0.6c0,0.1,0,0.3-0.1,0.7h-6.3
					c-0.4,2.1-5.6,15.8-6.2,17.4c0,0.1-0.2,0.2-0.3,0.1c-0.1,0-0.2-0.2-0.1-0.3c1.7-4.3,5.8-15.5,6.2-17.3c-1.7,0-3.4,0-5,0
					c-2,8.8-15.9,28.8-16.5,29.7c-0.1,0.1-0.2,0.1-0.3,0.1c-0.1-0.1-0.1-0.2-0.1-0.3c0.1-0.2,14.3-20.6,16.4-29.4
					c-2.2,0-4.4,0-6.6,0c-4.7,10.2-25.9,32.3-26.2,32.5c-0.1,0.1-0.2,0.1-0.3,0c-0.1-0.1-0.1-0.2,0-0.3c0.2-0.2,21.2-22,26-32.2
					c-3.3,0-6.5,0-9.7,0c-3.1,7.3-27.5,28.2-28.5,29.1c-0.1,0.1-0.2,0.1-0.3,0c-0.1-0.1-0.1-0.2,0-0.3c0.3-0.2,25-21.4,28.3-28.8
					c-3.8,0-7.6,0-11.2,0c0,0,0,0,0,0c-7.5,10.5-28,23-28.2,23.2c-0.1,0.1-0.2,0-0.3-0.1c-0.1-0.1,0-0.2,0.1-0.3
					c0.2-0.1,20.3-12.4,27.9-22.8c-4.5,0-8.7,0-12.7-0.1c0,0,0,0,0,0c-6.8,5.8-24.8,15.5-25,15.6c-0.1,0.1-0.2,0-0.3-0.1
					c-0.1-0.1,0-0.2,0.1-0.3c0.2-0.1,17.6-9.4,24.6-15.2c-5,0-9.5-0.1-13.6-0.1c-6.9,5.3-17.6,7.7-17.7,7.8c-0.1,0-0.2-0.1-0.3-0.2
					c0-0.1,0.1-0.2,0.2-0.3c0.1,0,10.2-2.3,17.1-7.3c-14.7-0.1-23.5-0.2-23.5-0.4s8.9-0.3,23.8-0.4c-6.8-5.2-17.2-7.5-17.4-7.5
					c-0.1,0-0.2-0.1-0.2-0.3c0-0.1,0.1-0.2,0.3-0.2c0.1,0,11.1,2.5,18,8c4.1,0,8.5-0.1,13.4-0.1c-7.1-5.8-24.2-15-24.4-15.1
					c-0.1-0.1-0.1-0.2-0.1-0.3c0.1-0.1,0.2-0.2,0.3-0.1c0.2,0.1,18,9.6,24.9,15.5c4,0,8.2,0,12.7-0.1c-7.7-10.4-27.5-22.4-27.7-22.5
					c-0.1-0.1-0.1-0.2-0.1-0.3s0.2-0.1,0.3-0.1c0.2,0.1,20.4,12.4,28,22.9c3.6,0,7.4,0,11.2,0c-2.9-7.1-28.2-28.7-28.4-29
					c-0.1-0.1-0.1-0.2,0-0.3c0.1-0.1,0.2-0.1,0.3,0c1,0.9,25.6,21.9,28.6,29.2c0,0,0,0.1,0,0.1c0,0,0,0.1,0,0.1c3.2,0,6.4,0,9.8,0
					c-4.6-10.1-25.9-32.2-26.1-32.4c-0.1-0.1-0.1-0.2,0-0.3C222.9,102.1,223,102.1,223.1,102.2z"/>
			</g>
		</g>
	</g>
	<g>
		<g>
			<path class="st1" d="M357.4,158.2l-3.9-3.2c8.7-1.3,21.6,5.1,21.6,5.1l-3.1-4.5c5.7,0.2,19.6,10.8,21.8,13.1
				c0.2,0.2,0.3,0.3,0.3,0.4c0.1,0.1,0.1,0.3,0.2,0.6c1,3.4,3.6,20.3,1.1,25.4l-2.5-4.9c0,0-0.5,14.4-5.9,21.4l-1-5
				c-0.2,0.3-6.5,12.5-12.8,14l-0.1-3.8c0,0-5,6-11.4,6.1l0.5-4.1c0,0-6.7,5-13.4,4.6l2.6-3.7c0,0-8.9,2.3-14.4,0.6l3-1.6
				c0,0-10.4-0.5-13.9-2.2l1.4-1.7c0,0-8.9-0.4-9.8-0.4c0.4-0.8,4.3-8.8,4.3-8.8l-2.2,0.5c0.2-3.8,4.7-13.2,4.7-13.2l-2.9,1.9
				c1.2-5.6,7.4-12.3,7.4-12.3l-4.5,0.5c2.8-6.1,10.4-9.6,10.4-9.6l-3.9-1.6c3.1-5.6,10.8-7.1,10.8-7.1l-3.3-1.9
				C343.3,157.9,357,158.2,357.4,158.2z"/>
			<path class="st2" d="M357.4,158.2l-3.9-3.2c8.7-1.3,21.6,5.1,21.6,5.1l-3.1-4.5c6.2,0.2,21.9,12.6,22.1,13.5L318,214.4
				c0.4-0.8,4.3-8.8,4.3-8.8l-2.2,0.5c0.2-3.8,4.7-13.2,4.7-13.2l-2.9,1.9c1.2-5.6,7.4-12.3,7.4-12.3l-4.5,0.5
				c2.9-6.1,10.5-9.6,10.5-9.6l-3.9-1.6c3.2-5.6,10.8-7.1,10.8-7.1l-3.3-1.9C343.3,157.9,357,158.2,357.4,158.2z"/>
			<path class="st3" d="M344.9,164.2c0.3,0.1,26.7,7.4,34.7,13c1.6-1,3.3-2,4.9-2.9c-5.3-5.7-25.7-15-25.9-15.1
				c-0.1,0-0.2-0.2-0.1-0.3c0-0.1,0.2-0.1,0.3-0.1c0.9,0.4,20.8,9.5,26.1,15.2c1.3-0.7,2.5-1.5,3.8-2.3l0,0
				c-0.5-0.8-9.2-7.8-12.6-10.5c-0.1-0.1-0.1-0.2,0-0.3c0.1-0.1,0.2-0.1,0.3,0c1.2,1,12.1,9.6,12.7,10.6l0,0l4.8-2.9
				c0.2,0.2,0.3,0.3,0.3,0.4c0.1,0.1,0.1,0.3,0.2,0.6l-4.8,2.9c0.7,1.7,2.9,14.5,3.2,16c0,0.1-0.1,0.2-0.2,0.2
				c-0.1,0-0.2-0.1-0.2-0.2c-0.7-4-2.6-14.4-3.1-15.9c-1.3,0.8-2.6,1.5-3.8,2.3c2.5,7.6,0.9,29.1,0.8,30c0,0.1-0.1,0.2-0.2,0.2
				c-0.1,0-0.2-0.1-0.2-0.2c0-0.2,1.6-22.1-0.8-29.7c-1.7,1-3.4,2-5,3c1,9.9-5.1,36.2-5.2,36.5c0,0.1-0.1,0.2-0.2,0.1
				c-0.1,0-0.2-0.1-0.2-0.2c0.1-0.3,6.1-26.3,5.2-36.2c-2.5,1.5-5,2.9-7.4,4.4c1,6.9-8.2,33.8-8.5,35c0,0.1-0.2,0.2-0.3,0.1
				c-0.1,0-0.2-0.2-0.1-0.3c0.1-0.3,9.3-27.6,8.5-34.6c-2.9,1.7-5.8,3.4-8.5,5c0,0,0,0,0,0c-0.9,11.4-10.8,30.1-10.9,30.3
				c-0.1,0.1-0.2,0.1-0.3,0.1c-0.1,0-0.1-0.2-0.1-0.3c0.1-0.2,9.8-18.6,10.9-29.9c-3.4,2-6.6,3.9-9.7,5.7c0,0,0,0,0,0
				c-2.5,7.5-11.9,23-12,23.1c-0.1,0.1-0.2,0.1-0.3,0.1c-0.1-0.1-0.1-0.2-0.1-0.3c0.1-0.1,9.1-15.1,11.8-22.6
				c-3.8,2.2-7.2,4.3-10.4,6.1c-2.8,7.2-9.9,13.8-9.9,13.9c-0.1,0.1-0.2,0.1-0.3,0c-0.1-0.1-0.1-0.2,0-0.3c0.1-0.1,6.7-6.4,9.7-13.3
				c-11.2,6.6-18,10.4-18,10.3c-0.1-0.1,6.7-4.3,17.9-11.1c-7.5-0.9-16.5,2.1-16.6,2.1c-0.1,0-0.2,0-0.3-0.1c0-0.1,0-0.2,0.1-0.3
				c0.1,0,9.5-3.1,17.2-2.1c3.1-1.9,6.5-3.9,10.1-6.1c-8-1.2-25.2-0.5-25.3-0.4c-0.1,0-0.2-0.1-0.2-0.2c0-0.1,0.1-0.2,0.2-0.2
				c0.2,0,18-0.8,25.9,0.5c3-1.8,6.2-3.8,9.6-5.8c-10.5-4.4-31-4.6-31.2-4.6c-0.1,0-0.2-0.1-0.2-0.2c0-0.1,0.1-0.2,0.2-0.2
				c0.2,0,21.1,0.3,31.6,4.8c2.7-1.6,5.6-3.3,8.5-5.1c-5.4-4.1-34.4-9.1-34.7-9.2c-0.1,0-0.2-0.1-0.2-0.2c0-0.1,0.1-0.2,0.2-0.2
				c1.2,0.2,29.3,5.1,34.8,9.2c0,0,0,0,0,0.1c0,0,0,0,0,0.1c2.4-1.4,4.9-2.9,7.4-4.4c-8.1-5.6-34.2-12.8-34.4-12.9
				c-0.1,0-0.2-0.1-0.1-0.2C344.7,164.3,344.8,164.2,344.9,164.2z"/>
		</g>
	</g>
	<g>
		<g>
			<g>
				<path class="st5" d="M344.5,239.8l2.3-2.5c0.6,5.9-4.2,14.4-4.2,14.4l3.2-2c-0.3,3.9-8,12.8-9.6,14.3c-0.1,0.1-0.2,0.2-0.3,0.2
					c0,0-0.2,0.1-0.4,0.1c-2.3,0.6-13.8,1.7-17.1-0.2l3.4-1.5c0,0-9.7-0.9-14.3-4.7l3.4-0.5c-0.2-0.1-8.2-4.8-9-9.1l2.6,0.1
					c0,0-3.9-3.6-3.7-7.9l2.8,0.5c0,0-3.1-4.7-2.6-9.2l2.4,1.9c0,0-1.2-6.1,0.1-9.7l1,2.1c0,0,0.7-7,1.9-9.3l1.1,1
					c0,0,0.6-6,0.6-6.6c0.5,0.3,5.8,3.2,5.8,3.2l-0.2-1.5c2.6,0.3,8.8,3.7,8.8,3.7l-1.2-2c3.7,1,8,5.5,8,5.5l-0.2-3
					c4,2.1,6.1,7.4,6.1,7.4l1.2-2.5c3.6,2.3,4.4,7.6,4.4,7.6l1.4-2.1C345.2,230.3,344.6,239.5,344.5,239.8z"/>
				<path class="st6" d="M344.5,239.8l2.3-2.5c0.6,5.9-4.2,14.4-4.2,14.4l3.2-2c-0.3,4.2-9.3,14.4-9.9,14.5l-27.9-53
					c0.5,0.3,5.8,3.2,5.8,3.2l-0.2-1.5c2.6,0.3,8.8,3.7,8.8,3.7l-1.2-2c3.7,1,8,5.5,8,5.5l-0.2-3c4,2.1,6.1,7.4,6.1,7.4l1.2-2.5
					c3.6,2.3,4.4,7.6,4.4,7.6l1.4-2.1C345.2,230.3,344.6,239.5,344.5,239.8z"/>
				<path class="st7" d="M340.9,231.1c-0.1,0.2-5.9,17.8-10,23c0.6,1.1,1.2,2.3,1.8,3.4c4-3.4,11-16.8,11.1-16.9
					c0-0.1,0.1-0.1,0.2-0.1c0.1,0,0.1,0.1,0.1,0.2c-0.3,0.6-7.1,13.7-11.2,17c0.5,0.9,0.9,1.8,1.4,2.6l0,0c0.5-0.3,5.6-6,7.5-8.1
					c0.1-0.1,0.1-0.1,0.2,0c0.1,0.1,0.1,0.1,0,0.2c-0.7,0.8-6.9,7.8-7.6,8.2l0,0l1.8,3.3c-0.1,0.1-0.2,0.2-0.3,0.2
					c0,0-0.2,0.1-0.4,0.1l-1.8-3.3c-1.2,0.4-9.9,1.5-10.9,1.6c-0.1,0-0.1,0-0.2-0.1c0-0.1,0-0.1,0.1-0.2c2.7-0.3,9.8-1.2,10.8-1.5
					c-0.5-0.9-0.9-1.8-1.4-2.7c-5.2,1.4-19.6-0.4-20.3-0.5c-0.1,0-0.1-0.1-0.1-0.2c0-0.1,0.1-0.1,0.2-0.1c0.2,0,14.9,1.8,20.1,0.5
					c-0.6-1.2-1.2-2.3-1.8-3.5c-6.7,0.4-24.3-4.7-24.4-4.8c-0.1,0-0.1-0.1-0.1-0.2c0-0.1,0.1-0.1,0.2-0.1c0.2,0.1,17.5,5.1,24.2,4.8
					c-0.9-1.8-1.8-3.5-2.7-5.1c-4.7,0.4-22.5-6.7-23.3-7c-0.1,0-0.1-0.1-0.1-0.2c0-0.1,0.1-0.1,0.2-0.1c0.2,0.1,18.3,7.3,23.1,7
					c-1.1-2-2.1-4-3.1-5.9c0,0,0,0,0,0c-7.7-1-19.9-8.4-20.1-8.4c-0.1,0-0.1-0.1,0-0.2c0-0.1,0.1-0.1,0.2,0
					c0.1,0.1,12.2,7.3,19.8,8.4c-1.2-2.4-2.4-4.6-3.5-6.7c0,0,0,0,0,0c-5-2-15.1-8.8-15.2-8.9c-0.1,0-0.1-0.1,0-0.2
					c0-0.1,0.1-0.1,0.2,0c0.1,0.1,9.8,6.7,14.9,8.8c-1.4-2.6-2.6-5-3.7-7.2c-4.7-2.2-9-7.2-9-7.2c0-0.1,0-0.1,0-0.2
					c0.1,0,0.1,0,0.2,0c0,0.1,4.1,4.8,8.6,7c-4-7.8-6.4-12.5-6.3-12.5c0.1,0,2.6,4.6,6.8,12.5c0.8-5-0.8-11.2-0.8-11.3
					c0-0.1,0-0.1,0.1-0.2c0.1,0,0.1,0,0.2,0.1c0,0.1,1.8,6.5,0.8,11.7c1.1,2.1,2.4,4.5,3.8,7.1c1.1-5.4,1.2-17,1.2-17.1
					c0-0.1,0.1-0.1,0.1-0.1c0.1,0,0.1,0.1,0.1,0.1c0,0.1-0.1,12.2-1.3,17.4c1.1,2.1,2.3,4.3,3.6,6.7c3.3-7,4.2-20.7,4.2-20.9
					c0-0.1,0.1-0.1,0.1-0.1c0.1,0,0.1,0.1,0.1,0.1c0,0.1-0.9,14.2-4.3,21.2c1,1.9,2.1,3.9,3.1,5.9c2.9-3.5,7.4-22.9,7.4-23.1
					c0-0.1,0.1-0.1,0.2-0.1c0.1,0,0.1,0.1,0.1,0.2c-0.2,0.8-4.5,19.6-7.5,23.2c0,0,0,0,0,0c0,0,0,0,0,0c0.9,1.7,1.8,3.4,2.7,5.2
					c4.1-5.3,9.8-22.6,9.9-22.8c0-0.1,0.1-0.1,0.2-0.1C340.9,231,341,231.1,340.9,231.1z"/>
			</g>
		</g>
	</g>
	<g>
		<g>
			<g>
				<path class="st9" d="M123.9,162.8c1-1,3.8-1.6,3.8-1.6l-0.8-0.4c0.9-0.7,4.3-0.8,4.3-0.8l-1-0.6c0.7-0.5,5,0,5,0l-1-0.7
					c1.2-0.6,3.6-0.5,5.9-0.2c2.2,0.2,4.3,0.7,5.4,0.9c0,0,0.1,0,0.1,0c0,0,0,0,0,0c0,0.2,0.1,0.3,0.1,0.5c0.5,2.5,1.6,8.6,0.6,10.8
					l-0.7-1c0,0,0.5,4.3,0,5l-0.6-1c0,0-0.1,3.4-0.8,4.3l-0.4-0.8c0,0-0.6,2.8-1.6,3.8l-0.3-0.7c0,0-0.9,2.6-2.6,3.7l0-0.7
					c0,0-1.8,2.6-2.9,2.7l0.2-0.6c0,0-2,2.1-3,2.3l0.2-0.6c0,0-1.7,1.4-2.7,1.6l0.3-0.6c0,0-2,1.1-2.8,1.3l0.3-0.6
					c0,0-2.3,1.1-3.5,1.2l0.5-0.6c0,0-1.9,0.8-2.8,0.7l0.2-0.4c0,0-1.9,0.4-2.3,0.3l0.5-0.5c0,0-2.1,0.7-2.6,0.5l0.4-0.4
					c0,0-0.5,0.1-1.2,0.1c-0.7,0-1.6,0-2.3-0.3c0,0,0,0,0,0c-0.5-1.4-0.1-3.5-0.1-3.5l-0.4,0.4c-0.2-0.6,0.5-2.6,0.5-2.6l-0.5,0.5
					c-0.1-0.4,0.3-2.3,0.3-2.3l-0.4,0.2c0-0.8,0.7-2.8,0.7-2.8l-0.6,0.5c0.1-1.2,1.2-3.5,1.2-3.5l-0.6,0.3c0.1-0.8,1.3-2.8,1.3-2.8
					l-0.6,0.3c0.1-1.1,1.6-2.7,1.6-2.7l-0.6,0.2c0.2-1,2.3-3,2.3-3l-0.6,0.2c0.1-1.1,2.7-2.9,2.7-2.9l-0.7,0
					c1.1-1.6,3.7-2.6,3.7-2.6L123.9,162.8z"/>
				<path class="st10" d="M124.6,163.1c0,0-2.6,0.9-3.7,2.6l0.7,0c0,0-2.6,1.8-2.7,2.9l0.6-0.2c0,0-2.1,2-2.3,3l0.6-0.2
					c0,0-1.4,1.7-1.6,2.7l0.6-0.3c0,0-1.1,2-1.3,2.8l0.6-0.3c0,0-1.1,2.3-1.2,3.5l0.6-0.5c0,0-0.8,1.9-0.7,2.8l0.4-0.2
					c0,0-0.4,1.9-0.3,2.3l0.5-0.5c0,0-0.7,2.1-0.5,2.6l0.4-0.4c0,0-0.4,2.1,0.1,3.5l0,0c0,0,0,0,0,0c0,0,0,0,0,0l0,0
					c0,0,0.1,0,0.1,0l29.9-29.9c0,0,0-0.1,0-0.1l0,0c0,0,0,0,0,0c0,0,0,0,0,0l0,0c-2-0.4-8.9-1.8-11.4-0.7l1,0.7c0,0-4.3-0.5-5,0
					l1,0.6c0,0-3.4,0.1-4.3,0.8l0.8,0.4c0,0-2.8,0.6-3.8,1.6L124.6,163.1z"/>
				<path class="st11" d="M122.3,166.2c0.5,0.1,10.9,2.5,13,3.2c0.6-0.6,1.3-1.3,1.9-1.9c-2.4-0.8-11.6-3.5-11.7-3.5
					c-0.1,0-0.1-0.1-0.1-0.1c0-0.1,0.1-0.1,0.1-0.1c0.1,0,9.6,2.9,11.9,3.6c0.6-0.6,1.3-1.3,2-2c-1.6-0.6-10.5-3.2-10.6-3.2
					c-0.1,0-0.1-0.1-0.1-0.1c0-0.1,0.1-0.1,0.1-0.1c0.4,0.1,9.4,2.8,10.7,3.3c0.6-0.6,1.2-1.2,1.8-1.8c-1.7-0.7-9.2-2.7-9.3-2.7
					c-0.1,0-0.1-0.1-0.1-0.1c0-0.1,0.1-0.1,0.1-0.1c0.3,0.1,7.8,2.1,9.4,2.8c0.6-0.6,1.2-1.2,1.8-1.8c-2.3-0.7-6.8-1.7-6.8-1.7
					c-0.1,0-0.1-0.1-0.1-0.1c0-0.1,0.1-0.1,0.1-0.1c0,0,4.7,1,7,1.7c0.7-0.7,1.3-1.3,2-2c0,0,0.1,0,0.1,0c0,0,0,0,0,0
					c0,0.2,0.1,0.3,0.1,0.5c-0.6,0.6-1.2,1.2-1.8,1.8c0.7,2.2,1.7,7,1.7,7c0,0.1,0,0.1-0.1,0.1c-0.1,0-0.1,0-0.1-0.1
					c0,0-1-4.6-1.7-6.9c-0.6,0.6-1.2,1.2-1.8,1.8c0.7,1.5,2.7,9.1,2.8,9.4c0,0.1,0,0.1-0.1,0.1c-0.1,0-0.1,0-0.1-0.1
					c0-0.1-2.1-7.7-2.7-9.3c-0.6,0.6-1.2,1.2-1.8,1.8c0.5,1.1,3.1,10.3,3.3,10.7c0,0.1,0,0.1-0.1,0.1c-0.1,0-0.1,0-0.1-0.1
					c0-0.1-2.7-9.2-3.2-10.6c-0.7,0.7-1.3,1.3-2,2c0.7,2.2,3.6,11.8,3.6,11.9c0,0.1,0,0.1-0.1,0.1c-0.1,0-0.1,0-0.1-0.1
					c0-0.1-2.8-9.4-3.5-11.8c-0.6,0.6-1.3,1.3-1.9,1.9c0.7,1.9,3.1,12.5,3.2,13c0,0.1,0,0.1-0.1,0.1c-0.1,0-0.1,0-0.1-0.1
					c0-0.1-2.4-10.7-3.1-12.9c-0.7,0.7-1.4,1.4-2.1,2.1c0.6,1.4,2.6,12.2,2.7,12.6c0,0.1,0,0.1-0.1,0.1c-0.1,0-0.1,0-0.1-0.1
					c0-0.1-2-10.8-2.6-12.5c-0.8,0.8-1.6,1.6-2.4,2.4c0.2,1,2.8,11.7,2.8,11.8l-0.2,0.1c0-0.1-2.4-10.1-2.8-11.7
					c-0.7,0.7-1.3,1.3-1.9,1.9c0.5,1.3,2.1,10.2,2.2,10.6c0,0.1,0,0.1-0.1,0.1c-0.1,0-0.1,0-0.1-0.1c0-0.1-1.7-8.9-2.2-10.5
					c-0.7,0.7-1.3,1.3-1.9,1.9c0.3,1.4,1.4,9.1,1.4,9.4c0,0.1,0,0.1-0.1,0.1c-0.1,0-0.1,0-0.1-0.1c0-0.1-1-7.6-1.4-9.2
					c-0.7,0.7-1.5,1.4-2.1,2.1c0.2,1.1,0.3,7.3,0.3,7.6c0,0.1,0,0.1-0.1,0.1c-0.1,0-0.1,0-0.1-0.1c0-0.1-0.1-6-0.3-7.4
					c-0.8,0.8-1.5,1.5-2.2,2.1c0,0,0,0,0,0c0,0,0,0.1-0.1,0.1c0.1,1.1,0,5.1,0,5.3c0,0.1-0.1,0.1-0.1,0.1c-0.1,0-0.1-0.1-0.1-0.1
					c0,0,0-3.8,0-5.1c-0.9,0.9-1.7,1.7-2.4,2.3c0,0,0,0,0,0c0,0,0,0,0,0c0.1,0.6,0.1,2.6,0.1,2.7c0,0.1,0,0.1-0.1,0.1
					c-0.1,0-0.1,0-0.1-0.1c0,0,0-1.9-0.1-2.6c-1.5,1.4-2.3,2.2-2.3,2.1c0,0,0.7-0.8,2.1-2.3c-0.8-0.1-2.5-0.1-2.5-0.1
					c-0.1,0-0.1-0.1-0.1-0.1c0-0.1,0.1-0.1,0.1-0.1c0.1,0,2.1,0.1,2.7,0.1l0,0c0.6-0.7,1.4-1.5,2.3-2.4c-1.3,0-5,0-5,0
					c-0.1,0-0.1-0.1-0.1-0.1c0-0.1,0-0.1,0.1-0.1c0.2,0,4.2,0,5.3,0c0.7-0.7,1.4-1.4,2.2-2.2c-1.5-0.2-7.3-0.3-7.4-0.3
					c-0.1,0-0.1-0.1-0.1-0.1c0-0.1,0.1-0.1,0.1-0.1c0.3,0,6.3,0.1,7.5,0.3c0.7-0.7,1.4-1.4,2.1-2.1c-1.7-0.4-9.1-1.4-9.2-1.4
					c-0.1,0-0.1-0.1-0.1-0.1c0-0.1,0.1-0.1,0.1-0.1c0.3,0,7.9,1.1,9.3,1.4c0.6-0.6,1.2-1.3,1.9-1.9c-1.7-0.5-10.3-2.1-10.4-2.1
					c-0.1,0-0.1-0.1-0.1-0.1c0-0.1,0.1-0.1,0.1-0.1c0.4,0.1,9.1,1.7,10.5,2.2c0.6-0.6,1.2-1.3,1.9-1.9c-1.7-0.4-11.5-2.7-11.7-2.8
					c-0.1,0-0.1-0.1-0.1-0.1c0-0.1,0.1-0.1,0.1-0.1c0.1,0,10.6,2.5,11.8,2.8c0.8-0.8,1.6-1.6,2.4-2.4c-1.8-0.6-12.4-2.6-12.5-2.6
					c-0.1,0-0.1-0.1-0.1-0.1c0-0.1,0.1-0.1,0.1-0.1c0.5,0.1,11,2,12.6,2.6c0.7-0.7,1.4-1.4,2.1-2.1c-2.2-0.8-12.7-3.1-12.8-3.1
					c-0.1,0-0.1-0.1-0.1-0.1C122.1,166.3,122.2,166.2,122.3,166.2z"/>
			</g>
		</g>
	</g>
	<g>
		<g>
			<path class="st12" d="M209.2,153.4c0,0,11.5-7.9,13.6-10.3c2-2.5-1.3-2.3-1.3-2.3s-0.4,1.7-1.3,2.8c-0.8,1.1-12,8.6-12,8.6
				L209.2,153.4z"/>
			<g>
				<path class="st1" d="M175,150.4c2-1.5,7.1-2,7.1-2l-1.4-0.9c1.8-1,7.8-0.5,7.8-0.5l-1.6-1.3c1.3-0.8,8.8,1.1,8.8,1.1l-1.6-1.5
					c2.3-0.7,6.4-0.1,10.4,0.9c3.8,0.9,7.5,2.2,9.3,2.8c0.1,0,0.2,0.1,0.2,0.1c0,0,0,0,0,0c0,0.3,0.1,0.6,0.1,1
					c0.4,4.5,0.9,15.5-1.4,19.3l-1-1.9c0,0-0.1,7.8-1.2,8.8l-0.9-1.9c0,0-1,6-2.4,7.4l-0.6-1.6c0,0-1.7,4.9-3.7,6.4l-0.4-1.2
					c0,0-2.2,4.3-5.4,5.9l0.2-1.3c0,0-3.8,4.3-5.7,4.2l0.4-1c0,0-4,3.2-5.7,3.3l0.5-1.1c0,0-3.3,2.2-5.2,2.1l0.6-1.1
					c0,0-3.7,1.6-5.2,1.7l0.6-0.9c0,0-4.3,1.5-6.4,1.3l1-1c0,0-3.6,0.9-5.1,0.7l0.5-0.6c0,0-3.4,0.4-4.2,0l0.9-0.8
					c0,0-3.8,0.7-4.7,0.2l0.8-0.6c0,0-1,0.1-2.2,0c-1.3-0.1-2.8-0.3-4-1c0,0,0,0,0,0c-0.6-2.6,0.6-6.2,0.6-6.2l-0.8,0.7
					c-0.3-1,1.4-4.5,1.4-4.5l-1,0.7c-0.2-0.8,1-4.1,1-4.1l-0.7,0.3c0.2-1.5,1.9-4.7,1.9-4.7l-1.2,0.7c0.4-2.1,2.9-5.9,2.9-5.9
					l-1.1,0.4c0.4-1.4,2.9-4.6,2.9-4.6l-1.2,0.3c0.4-1.9,3.4-4.5,3.4-4.5l-1.2,0.2c0.5-1.7,4.6-4.7,4.6-4.7l-1.1,0.2
					c0.4-1.8,5.5-4.5,5.5-4.5l-1.3-0.1c2.3-2.7,7-3.8,7-3.8L175,150.4z"/>
				<path class="st2" d="M176.1,151.1c0,0-4.8,1.1-7,3.8l1.3,0.1c0,0-5.1,2.6-5.5,4.5l1.1-0.2c0,0-4.1,3-4.6,4.7l1.2-0.2
					c0,0-2.9,2.6-3.4,4.5l1.2-0.3c0,0-2.5,3.2-2.9,4.6l1.1-0.4c0,0-2.5,3.8-2.9,5.9l1.2-0.7c0,0-1.8,3.3-1.9,4.7l0.7-0.3
					c0,0-1.2,3.2-1,4l1-0.7c0,0-1.7,3.5-1.4,4.5l0.8-0.7c0,0-1.2,3.7-0.6,6.2l0,0c0,0,0,0,0,0c0,0,0,0,0,0l0,0
					c0.1,0,0.1,0.1,0.2,0.1l59.5-46c0-0.1,0-0.2,0-0.3l0,0c0,0,0,0,0,0c0,0,0,0,0,0l0,0c-3.4-1.2-15.3-5.2-19.9-3.8l1.6,1.5
					c0,0-7.5-1.8-8.8-1.1l1.6,1.3c0,0-6-0.5-7.8,0.5l1.4,0.9c0,0-5.1,0.4-7.1,2L176.1,151.1z"/>
				<path class="st3" d="M171.3,156.2c0.8,0.3,18.7,6.8,22.2,8.5c1.2-1,2.5-2,3.8-3c-4.1-1.9-19.8-8.8-19.9-8.9
					c-0.1,0-0.1-0.2-0.1-0.3c0-0.1,0.2-0.1,0.3-0.1c0.2,0.1,16.3,7.2,20.1,9c1.3-1,2.6-2,3.9-3c-2.7-1.4-17.8-8-18-8
					c-0.1,0-0.1-0.2-0.1-0.3c0-0.1,0.2-0.2,0.3-0.1c0.7,0.3,15.9,7,18.2,8.1c1.2-0.9,2.4-1.8,3.6-2.8c-2.9-1.6-15.6-6.9-15.8-6.9
					c-0.1,0-0.2-0.2-0.1-0.3c0-0.1,0.2-0.1,0.3-0.1c0.6,0.2,13.3,5.5,16,7c1.2-0.9,2.4-1.9,3.6-2.8c-3.8-1.8-11.6-4.5-11.7-4.5
					c-0.1,0-0.2-0.1-0.1-0.3c0-0.1,0.2-0.2,0.3-0.1c0.1,0,8.1,2.8,11.9,4.6c1.3-1,2.7-2.1,4-3.1c0.1,0,0.2,0.1,0.2,0.1c0,0,0,0,0,0
					c0,0.3,0.1,0.6,0.1,1c-1.2,1-2.5,1.9-3.7,2.8c0.8,4.1,1.5,12.7,1.5,12.8c0,0.1-0.1,0.2-0.2,0.2c-0.1,0-0.2-0.1-0.2-0.2
					c0-0.1-0.7-8.4-1.5-12.5c-1.2,0.9-2.4,1.9-3.6,2.8c0.9,2.8,2.7,16.7,2.8,17.3c0,0.1-0.1,0.2-0.2,0.2c-0.1,0-0.2-0.1-0.2-0.2
					c0-0.1-1.9-14.1-2.8-17.1c-1.2,0.9-2.4,1.9-3.6,2.8c0.5,2.1,3.2,19,3.4,19.7c0,0.1-0.1,0.2-0.2,0.2c-0.1,0-0.2-0.1-0.2-0.2
					c0-0.2-2.7-16.8-3.3-19.5c-1.3,1-2.6,2-3.9,3c0.7,4,3.6,21.6,3.7,21.8c0,0.1-0.1,0.2-0.2,0.2c-0.1,0-0.2-0.1-0.2-0.2
					c0-0.2-2.9-17.3-3.6-21.6c-1.3,1-2.6,2-3.8,2.9c0.8,3.6,2.6,22.8,2.7,23.7c0,0.1-0.1,0.2-0.2,0.2c-0.1,0-0.2-0.1-0.2-0.2
					c0-0.2-1.9-19.5-2.7-23.4c-1.4,1.1-2.8,2.1-4.1,3.2c0.7,2.6,1.8,22.1,1.9,22.9c0,0.1-0.1,0.2-0.2,0.2c-0.1,0-0.2-0.1-0.2-0.2
					c0-0.2-1.1-19.6-1.8-22.7c-1.6,1.3-3.2,2.5-4.8,3.7c0.2,1.8,2.3,21.3,2.3,21.5l-0.4,0c0-0.2-2-18.4-2.3-21.3
					c-1.3,1-2.6,2-3.8,2.9c0.5,2.4,1.5,18.5,1.5,19.2c0,0.1-0.1,0.2-0.2,0.2c-0.1,0-0.2-0.1-0.2-0.2c0-0.2-0.9-16-1.5-18.9
					c-1.3,1-2.6,2-3.8,2.9c0.3,2.5,0.4,16.3,0.4,16.9c0,0.1-0.1,0.2-0.2,0.2c-0.1,0-0.2-0.1-0.2-0.2c0-0.1-0.1-13.6-0.4-16.6
					c-1.5,1.1-2.9,2.2-4.3,3.2c0.1,2-1.1,13-1.1,13.5c0,0.1-0.1,0.2-0.2,0.2c-0.1,0-0.2-0.1-0.2-0.2c0-0.1,1.1-10.6,1.1-13.1
					c-1.6,1.2-3,2.3-4.3,3.3c0,0,0,0,0,0c0,0.1-0.1,0.1-0.1,0.1c-0.1,1.9-1.1,9-1.1,9.3c0,0.1-0.1,0.2-0.2,0.2
					c-0.1,0-0.2-0.1-0.2-0.2c0-0.1,0.9-6.8,1.1-9c-1.8,1.4-3.4,2.6-4.7,3.5c0,0,0,0,0,0c0,0,0,0.1,0,0.1c0,1.1-0.4,4.7-0.4,4.9
					c0,0.1-0.1,0.2-0.2,0.2s-0.2-0.1-0.2-0.2c0,0,0.3-3.3,0.4-4.6c-2.9,2.2-4.5,3.3-4.5,3.3c0-0.1,1.5-1.3,4.2-3.5
					c-1.3-0.3-4.4-0.7-4.5-0.7c-0.1,0-0.2-0.1-0.2-0.2c0-0.1,0.1-0.2,0.2-0.2c0.2,0,3.7,0.6,4.8,0.8l0,0c1.3-1,2.9-2.3,4.6-3.7
					c-2.3-0.4-8.8-1.2-8.9-1.2c-0.1,0-0.2-0.1-0.2-0.2c0-0.1,0.1-0.2,0.2-0.2c0.3,0,7.3,0.9,9.3,1.3c1.3-1.1,2.8-2.2,4.4-3.5
					c-2.6-0.6-12.8-2.2-12.9-2.2c-0.1,0-0.2-0.1-0.2-0.2c0-0.1,0.1-0.2,0.2-0.2c0.5,0.1,11.1,1.7,13.3,2.3c1.3-1,2.7-2.1,4.2-3.3
					c-3-1-15.8-4.5-15.9-4.5c-0.1,0-0.2-0.1-0.1-0.2c0-0.1,0.1-0.2,0.2-0.1c0.6,0.2,13.7,3.7,16.2,4.6c1.2-1,2.5-1.9,3.8-3
					c-2.9-1.3-17.7-6.1-17.9-6.1c-0.1,0-0.2-0.2-0.1-0.3c0-0.1,0.1-0.2,0.3-0.1c0.7,0.2,15.7,5.1,18.1,6.2c1.2-0.9,2.5-1.9,3.8-2.9
					c-2.9-1.1-19.8-7.4-20-7.5c-0.1,0-0.2-0.2-0.1-0.3c0-0.1,0.2-0.2,0.3-0.1c0.2,0.1,18.1,6.8,20.2,7.6c1.5-1.2,3.1-2.5,4.8-3.7
					c-3.1-1.5-21.3-7.3-21.4-7.4c-0.1,0-0.2-0.1-0.1-0.3c0-0.1,0.1-0.2,0.3-0.1c0.8,0.3,19,6.1,21.7,7.5c1.3-1,2.7-2.1,4.1-3.2
					c-3.8-1.8-21.8-8.3-22-8.4c-0.1,0-0.2-0.2-0.1-0.3C171.1,156.2,171.2,156.1,171.3,156.2z"/>
			</g>
		</g>
	</g>
	<path class="st5" d="M158.7,232.6l3-2c-0.3,0-10.1-0.8-12.8-4.5l2.5-1.1c0,0-5.4-1.6-7.3-5.9l2.9-0.9c0,0-5.2-3-6.8-7.6l3.2,0.7
		c0,0-4-5.3-4.4-9.3l1.9,1.6c0,0-2.6-7.1-2.5-9.8l1.5,0.5c0,0-2.2-6-2.5-6.6c0.6,0.1,7,0.4,7,0.4l-0.9-1.3
		c2.6-0.9,10.1-0.6,10.1-0.6l-2-1.4c4-0.8,10.2,1.5,10.2,1.5l-1.6-2.8c4.8,0.2,9.3,4.2,9.3,4.2l0-3c4.6,0.5,7.7,5.2,7.7,5.2l0.3-2.7
		c4.4,1.5,8,10.6,8.1,10.9l1-3.5c3.3,5.4,2.7,15.8,2.7,15.8l2.1-3.3c1.5,3.8-1.7,16-2.6,18.1c-0.1,0.2-0.1,0.3-0.2,0.3
		c0,0.1-0.1,0.2-0.3,0.3c-2,1.6-12.4,8.1-16.5,7.8"/>
	<path class="st5" d="M171.9,233.5l2.6-3c0,0-9.7,3.7-15.8,2.1"/>
	<path class="st6" d="M185.7,198l1-3.5c3.3,5.4,2.7,15.8,2.7,15.8l2.1-3.3c1.6,4.2-2.2,18.1-2.8,18.5l-51.3-37.8
		c0.6,0.1,7,0.4,7,0.4l-0.9-1.3c2.6-0.9,10.1-0.6,10.1-0.6l-2-1.4c4-0.8,10.2,1.5,10.2,1.5l-1.6-2.8c4.8,0.2,9.3,4.2,9.3,4.2l0-3
		c4.6,0.5,7.7,5.2,7.7,5.2l0.3-2.7C181.9,188.5,185.6,197.7,185.7,198z"/>
	<path class="st7" d="M178.2,191.3c0,0.2,2.6,19.8,1.1,26.6c1.1,0.8,2.2,1.6,3.3,2.4c2.3-5.1,2.7-21.2,2.7-21.3
		c0-0.1,0.1-0.1,0.1-0.1s0.1,0.1,0.1,0.1c0,0.7-0.5,16.4-2.8,21.5c0.8,0.6,1.7,1.3,2.6,1.9l0,0c0.4-0.5,2.6-8.3,3.4-11.3
		c0-0.1,0.1-0.1,0.2-0.1c0.1,0,0.1,0.1,0.1,0.2c-0.3,1.1-3,10.7-3.5,11.4l0,0l3.2,2.4c-0.1,0.2-0.1,0.3-0.2,0.3
		c0,0.1-0.1,0.2-0.3,0.3l-3.2-2.4c-1,0.9-8.8,6-9.7,6.6c-0.1,0-0.2,0-0.2,0c0-0.1,0-0.2,0-0.2c2.5-1.6,8.8-5.7,9.7-6.5
		c-0.9-0.6-1.7-1.3-2.6-1.9c-4.3,3.7-19,8.7-19.6,9c-0.1,0-0.2,0-0.2-0.1c0-0.1,0-0.2,0.1-0.2c0.2-0.1,15.1-5.2,19.5-8.9
		c-1.1-0.8-2.3-1.7-3.4-2.5c-6.2,3.5-25.4,6.7-25.6,6.8c-0.1,0-0.2,0-0.2-0.1c0-0.1,0-0.2,0.1-0.2c0.2,0,19.1-3.3,25.4-6.7
		c-1.7-1.3-3.3-2.5-4.9-3.7c-4.3,2.6-24.7,4.1-25.5,4.1c-0.1,0-0.2-0.1-0.2-0.1c0-0.1,0.1-0.2,0.1-0.2c0.2,0,20.9-1.5,25.3-4
		c-2-1.5-3.9-2.9-5.7-4.2c0,0,0,0,0,0c-7.8,2.6-23,1.3-23.1,1.2c-0.1,0-0.1-0.1-0.1-0.2c0-0.1,0.1-0.1,0.2-0.1
		c0.1,0,15,1.3,22.8-1.2c-2.3-1.7-4.4-3.3-6.5-4.8c0,0,0,0,0,0c-5.7,0.4-18.5-1.4-18.6-1.5c-0.1,0-0.1-0.1-0.1-0.2
		c0-0.1,0.1-0.1,0.2-0.1c0.1,0,12.5,1.8,18.3,1.5c-2.5-1.9-4.8-3.6-6.9-5.2c-5.5,0.1-11.9-2.7-12-2.7c-0.1,0-0.1-0.1-0.1-0.2
		c0-0.1,0.1-0.1,0.2-0.1c0.1,0,6.1,2.7,11.5,2.7c-7.5-5.6-11.9-9-11.9-9.1c0.1-0.1,4.7,3.2,12.3,8.8c-1.5-5.2-6-10.3-6-10.4
		c0-0.1,0-0.1,0-0.2c0.1,0,0.1,0,0.2,0c0,0.1,4.7,5.4,6.2,10.8c2.1,1.5,4.4,3.2,6.9,5c-1.4-5.7-6.7-16.8-6.8-16.9
		c0-0.1,0-0.2,0.1-0.2c0.1,0,0.2,0,0.2,0.1c0.1,0.1,5.6,11.7,6.9,17.3c2.1,1.5,4.2,3.1,6.5,4.8c-0.1-8.2-5.6-21.8-5.7-21.9
		c0-0.1,0-0.2,0.1-0.2c0.1,0,0.2,0,0.2,0.1c0.1,0.1,5.7,14,5.7,22.3c1.9,1.4,3.8,2.8,5.8,4.2c1.2-4.7-3.6-25.3-3.6-25.5
		c0-0.1,0-0.2,0.1-0.2c0.1,0,0.2,0,0.2,0.1c0.2,0.8,4.8,20.8,3.6,25.7c0,0,0,0,0,0c0,0,0,0,0,0c1.6,1.2,3.3,2.4,5,3.7
		c1.4-6.9-1.1-26.2-1.1-26.4c0-0.1,0-0.2,0.1-0.2C178.1,191.2,178.2,191.3,178.2,191.3z"/>
	<g>
		<g>
			<g>
				<g>
					<path class="st14" d="M263.8,178.9c1.1,0.7,2.2,3.1,2.2,3.1l0.2-0.8c0.8,0.7,1.6,3.7,1.6,3.7l0.4-1c0.6,0.5,1,4.4,1,4.4l0.4-1
						c0.7,1,1.2,3.1,1.4,5.2c0.2,2,0.3,4,0.3,5c0,0,0,0.1,0,0.1c0,0,0,0,0,0c-0.1,0.1-0.3,0.1-0.5,0.2c-2.1,1-7.3,3.2-9.5,2.7
						l0.7-0.8c0,0-3.8,1.3-4.5,1l0.8-0.8c0,0-3.1,0.5-4,0.1l0.7-0.5c0,0-2.6,0-3.7-0.7l0.5-0.4c0,0-2.5-0.3-3.8-1.6l0.6-0.1
						c0,0-2.7-1.1-3-2l0.6,0c0,0-2.3-1.3-2.6-2.2l0.6,0c0,0-1.6-1.2-1.9-2.1l0.6,0.1c0,0-1.4-1.5-1.7-2.2l0.6,0.1
						c0,0-1.5-1.8-1.7-2.9l0.7,0.3c0,0-1.1-1.6-1.2-2.3l0.4,0.1c0,0-0.8-1.6-0.7-2l0.5,0.3c0,0-1-1.7-0.9-2.2l0.4,0.3
						c0,0-0.2-0.5-0.4-1.1c-0.2-0.6-0.3-1.4-0.2-2.1c0,0,0,0,0,0c1.1-0.8,3.1-0.8,3.1-0.8l-0.5-0.3c0.4-0.3,2.4-0.1,2.4-0.1
						l-0.5-0.4c0.4-0.2,2.1-0.2,2.1-0.2l-0.3-0.3c0.7-0.2,2.6,0.1,2.6,0.1l-0.5-0.5c1.1-0.2,3.3,0.4,3.3,0.4l-0.4-0.5
						c0.8,0,2.7,0.6,2.7,0.6l-0.4-0.5c1-0.1,2.7,0.8,2.7,0.8l-0.3-0.5c0.9,0,3.1,1.4,3.1,1.4l-0.3-0.5c1-0.1,3.1,1.9,3.1,1.9
						l-0.2-0.6c1.7,0.6,3,2.7,3,2.7L263.8,178.9z"/>
					<path class="st15" d="M263.7,179.5c0,0-1.4-2.1-3-2.7l0.2,0.6c0,0-2.2-2-3.1-1.9l0.3,0.5c0,0-2.2-1.5-3.1-1.4l0.3,0.5
						c0,0-1.8-1-2.7-0.8l0.4,0.5c0,0-2-0.6-2.7-0.6l0.4,0.5c0,0-2.2-0.5-3.3-0.4l0.5,0.5c0,0-1.9-0.3-2.6-0.1l0.3,0.3
						c0,0-1.8,0-2.1,0.2l0.5,0.4c0,0-2-0.2-2.4,0.1l0.5,0.3c0,0-2,0-3.1,0.8l0,0c0,0,0,0,0,0c0,0,0,0,0,0l0,0c0,0,0,0.1,0,0.1
						l32.5,20.6c0,0,0.1,0,0.1-0.1l0,0c0,0,0,0,0,0c0,0,0,0,0,0l0,0c0-1.9-0.2-8.3-1.7-10.2l-0.4,1c0,0-0.4-3.9-1-4.4l-0.4,1
						c0,0-0.8-3-1.6-3.7l-0.2,0.8c0,0-1.1-2.4-2.2-3.1L263.7,179.5z"/>
					<path class="st7" d="M260.4,178.1c0,0.4,0,10.2-0.2,12.2c0.7,0.4,1.4,0.9,2.1,1.3c0.2-2.3,0.8-11.1,0.8-11.2
						c0-0.1,0.1-0.1,0.1-0.1c0.1,0,0.1,0.1,0.1,0.1c0,0.1-0.6,9.1-0.8,11.3c0.7,0.4,1.4,0.9,2.1,1.3c0.2-1.5,0.7-10,0.7-10.1
						c0-0.1,0.1-0.1,0.1-0.1c0.1,0,0.1,0.1,0.1,0.1c0,0.4-0.6,8.9-0.8,10.2c0.6,0.4,1.3,0.8,2,1.2c0.3-1.7,0.6-8.7,0.6-8.8
						c0-0.1,0-0.1,0.1-0.1c0.1,0,0.1,0,0.1,0.1c0,0.3-0.3,7.4-0.6,8.9c0.7,0.4,1.3,0.8,2,1.2c0.2-2.1,0.1-6.4,0.1-6.4
						c0-0.1,0-0.1,0.1-0.1c0.1,0,0.1,0,0.1,0.1c0,0,0,4.4-0.1,6.5c0.7,0.5,1.5,0.9,2.2,1.4c0,0,0,0.1,0,0.1c0,0,0,0,0,0
						c-0.1,0.1-0.3,0.1-0.5,0.2c-0.7-0.4-1.3-0.9-2-1.3c-1.8,1.1-5.8,2.9-5.9,2.9c-0.1,0-0.1,0-0.1,0c0-0.1,0-0.1,0.1-0.1
						c0,0,3.9-1.8,5.8-2.9c-0.7-0.4-1.3-0.8-2-1.3c-1.2,0.9-7.6,4.2-7.8,4.4c-0.1,0-0.1,0-0.1,0c0-0.1,0-0.1,0-0.1
						c0.1,0,6.4-3.4,7.7-4.3c-0.7-0.4-1.3-0.8-2-1.2c-0.9,0.6-8.6,4.9-8.9,5.1c0,0-0.1,0-0.1,0c0,0,0-0.1,0-0.1c0.1,0,7.6-4.2,8.8-5
						c-0.7-0.5-1.4-0.9-2.1-1.4c-1.8,1-9.8,5.5-9.9,5.6c0,0-0.1,0-0.1,0c0,0,0-0.1,0-0.1c0.1,0,7.8-4.4,9.8-5.5
						c-0.7-0.4-1.4-0.9-2.1-1.3c-1.6,1-10.5,5.2-10.9,5.4c-0.1,0-0.1,0-0.1,0c0-0.1,0-0.1,0.1-0.1c0.1,0,9.1-4.3,10.8-5.4
						c-0.8-0.5-1.5-1-2.2-1.4c-1.1,0.8-10.3,4.7-10.7,4.9c-0.1,0-0.1,0-0.1-0.1c0-0.1,0-0.1,0.1-0.1c0.1,0,9.2-3.9,10.6-4.8
						c-0.9-0.6-1.8-1.1-2.6-1.7c-0.8,0.4-9.9,4.8-10,4.9l-0.1-0.2c0.1,0,8.5-4.1,9.9-4.8c-0.7-0.5-1.4-0.9-2.1-1.3
						c-1.1,0.7-8.7,3.9-9,4.1c-0.1,0-0.1,0-0.1-0.1c0-0.1,0-0.1,0.1-0.1c0.1,0,7.6-3.3,8.9-4c-0.7-0.5-1.4-0.9-2.1-1.3
						c-1.1,0.6-7.8,3-8.1,3.2c-0.1,0-0.1,0-0.1-0.1c0-0.1,0-0.1,0.1-0.1c0.1,0,6.5-2.4,7.9-3.1c-0.8-0.5-1.6-1-2.3-1.5
						c-1,0.4-6.5,1.7-6.7,1.8c-0.1,0-0.1,0-0.1-0.1c0-0.1,0-0.1,0.1-0.1c0.1,0,5.3-1.3,6.5-1.7c-0.8-0.5-1.6-1-2.3-1.5c0,0,0,0,0,0
						c0,0-0.1,0-0.1,0c-0.9,0.3-4.5,1.1-4.7,1.1c-0.1,0-0.1,0-0.1-0.1c0-0.1,0-0.1,0.1-0.1c0,0,3.4-0.7,4.5-1
						c-1-0.6-1.8-1.2-2.5-1.6c0,0,0,0,0,0c0,0,0,0,0,0c-0.5,0.2-2.3,0.6-2.4,0.6c-0.1,0-0.1,0-0.1-0.1c0-0.1,0-0.1,0.1-0.1
						c0,0,1.7-0.4,2.3-0.6c-1.5-1-2.4-1.6-2.4-1.6c0,0,0.9,0.5,2.4,1.4c-0.1-0.7-0.4-2.3-0.4-2.3c0-0.1,0-0.1,0.1-0.1
						c0.1,0,0.1,0,0.1,0.1c0,0.1,0.4,1.9,0.4,2.5l0,0c0.7,0.4,1.6,1,2.6,1.6c-0.2-1.2-1-4.5-1-4.5c0-0.1,0-0.1,0.1-0.1
						c0.1,0,0.1,0,0.1,0.1c0,0.2,0.8,3.7,1,4.7c0.7,0.5,1.6,1,2.4,1.5c-0.1-1.4-1.2-6.5-1.2-6.6c0-0.1,0-0.1,0.1-0.1
						c0.1,0,0.1,0,0.1,0.1c0,0.2,1.1,5.6,1.2,6.8c0.7,0.5,1.5,0.9,2.3,1.5c0-1.6-0.6-8.4-0.6-8.5c0-0.1,0-0.1,0.1-0.1
						c0.1,0,0.1,0,0.1,0.1c0,0.3,0.6,7.2,0.6,8.6c0.7,0.4,1.4,0.9,2.1,1.3c0.1-1.6-0.2-9.6-0.2-9.7c0-0.1,0-0.1,0.1-0.1
						c0.1,0,0.1,0,0.1,0.1c0,0.4,0.3,8.4,0.2,9.8c0.7,0.4,1.4,0.9,2.1,1.3c0-1.6,0.1-10.8,0.1-10.9c0-0.1,0-0.1,0.1-0.1
						c0.1,0,0.1,0,0.1,0.1c0,0.1-0.1,9.9-0.1,11c0.9,0.5,1.7,1.1,2.6,1.6c0.2-1.7-0.2-11.5-0.2-11.6c0-0.1,0-0.1,0.1-0.1
						c0.1,0,0.1,0,0.1,0.1c0,0.4,0.4,10.2,0.2,11.7c0.7,0.5,1.5,0.9,2.3,1.4c0.2-2.1,0.2-11.9,0.2-12c0-0.1,0-0.1,0.1-0.1
						C260.3,178,260.4,178.1,260.4,178.1z"/>
				</g>
			</g>
		</g>
	</g>
</g>
</svg>
